/* XPM */
static char *result[] = {
/* columns rows colors chars-per-pixel */
"64 64 207 2 ",
"   c #EF171E",
".  c #ED181E",
"X  c #EF181E",
"o  c #EF301D",
"O  c #EF311E",
"+  c #EE311F",
"@  c #EF351F",
"#  c #EE361F",
"$  c #EF361F",
"%  c #EE381E",
"&  c #EF391E",
"*  c #EE381F",
"=  c #EF381F",
"-  c #EF3B1E",
";  c #EF3C1E",
":  c #EF3F1E",
">  c #F1351B",
",  c #F43A1A",
"<  c #F0391C",
"1  c #F13D1F",
"2  c #EB1B22",
"3  c #ED1A20",
"4  c #ED1A21",
"5  c #EE1A21",
"6  c #ED1A22",
"7  c #EC1B22",
"8  c #ED1B22",
"9  c #ED1A23",
"0  c #EC1B23",
"q  c #ED1B23",
"w  c #EE1A22",
"e  c #EE1B22",
"r  c #EE1B23",
"t  c #EC1C23",
"y  c #ED1C23",
"u  c #EC1B24",
"i  c #ED1B24",
"p  c #EC1C24",
"a  c #ED1C24",
"s  c #F01720",
"d  c #ED2621",
"f  c #EE2721",
"g  c #EF2F20",
"h  c #EF2F21",
"j  c #EF3120",
"k  c #F34A17",
"l  c #F34418",
"z  c #F1421E",
"x  c #F1441C",
"c  c #F1441D",
"v  c #F1451F",
"b  c #F04B1B",
"n  c #F04C1B",
"m  c #F14C1B",
"M  c #F24D1A",
"N  c #F14F1B",
"B  c #F14B1C",
"V  c #F24F1C",
"C  c #F24F1D",
"Z  c #F34F1D",
"A  c #F15216",
"S  c #F45017",
"D  c #F45517",
"F  c #F55E15",
"G  c #F45F15",
"H  c #F1501A",
"J  c #F1511A",
"K  c #F1511B",
"L  c #F2511B",
"P  c #F0521A",
"I  c #F2531A",
"U  c #F3571B",
"Y  c #F3541C",
"T  c #F3561C",
"R  c #F35919",
"E  c #FF7B00",
"W  c #FF7C00",
"Q  c #FF7D00",
"!  c #FF7E00",
"~  c #F66113",
"^  c #F56014",
"/  c #F36517",
"(  c #F36617",
")  c #F36717",
"_  c #F76E14",
"`  c #F26018",
"'  c #F36318",
"]  c #F67512",
"[  c #FF9B00",
"{  c #FF9C00",
"}  c #FA9A0C",
"|  c #F98610",
" . c #F88615",
".. c #F88715",
"X. c #F98B10",
"o. c #F98815",
"O. c #F98915",
"+. c #F89213",
"@. c #FA9612",
"#. c #FB9D11",
"$. c #FB9E11",
"%. c #FFA100",
"&. c #FFA700",
"*. c #FFA800",
"=. c #FFA900",
"-. c #FFAD00",
";. c #F9A50A",
":. c #F8A50C",
">. c #F9A50C",
",. c #F8A60C",
"<. c #F8A70C",
"1. c #F9A60D",
"2. c #FAA60F",
"3. c #FCA70F",
"4. c #F9AA0B",
"5. c #F9AF0A",
"6. c #F9A80C",
"7. c #F9AB0C",
"8. c #FDAA0D",
"9. c #FCAD0F",
"0. c #FFBA00",
"q. c #FAB00B",
"w. c #FAB50A",
"e. c #FAB40B",
"r. c #FCB60E",
"t. c #FEB60E",
"y. c #FAB908",
"u. c #FAB909",
"i. c #FBBB08",
"p. c #FABA09",
"a. c #FBBC08",
"s. c #FBBF08",
"d. c #FEBA0F",
"f. c #FDBF0C",
"g. c #FEBC0E",
"h. c #FEBE0E",
"j. c #FAA210",
"k. c #FCA711",
"l. c #FDAD11",
"z. c #FDAF10",
"x. c #FBC106",
"c. c #FBC707",
"v. c #FFC800",
"b. c #FFCF00",
"n. c #FCC906",
"m. c #FCC907",
"M. c #FDCB07",
"N. c #FCCC05",
"B. c #FDCC07",
"V. c #FDCF06",
"C. c #FDCE07",
"Z. c #FBC008",
"A. c #FCC30A",
"S. c #FFC10E",
"D. c #FFC20E",
"F. c #FCC809",
"G. c #FDCC08",
"H. c #FFCE0B",
"J. c #FFCF0B",
"K. c #FFC90C",
"L. c #FCD703",
"P. c #FDD206",
"I. c #FED505",
"U. c #FDD604",
"Y. c #FCD704",
"T. c #FDD605",
"R. c #FFD800",
"E. c #FCD803",
"W. c #FDDC03",
"Q. c #FDDF03",
"!. c #FEDF02",
"~. c #FDD904",
"^. c #FDDB04",
"/. c #FEDD05",
"(. c #FDDE05",
"). c #FFD409",
"_. c #FFE300",
"`. c #FEE302",
"'. c #FEE701",
"]. c #FEE403",
"[. c #FFE104",
"{. c #FFE005",
"}. c #FFE404",
"|. c #FFE800",
" X c #FEE801",
".X c #FEE901",
"XX c #FFEA00",
"oX c #FEEA01",
"OX c #FEEB01",
"+X c #FFEA02",
"@X c #FFEB02",
"#X c #FEEC00",
"$X c #FFEC00",
"%X c #FFED00",
"&X c #FFEC01",
"*X c #FFED01",
"=X c #FFEE00",
"-X c #FFEF00",
";X c #FFED02",
":X c #FFF000",
">X c #FFF100",
",X c #FFF200",
"<X c #FFF300",
"1X c #FFF400",
"2X c #FFF500",
"3X c white",
"4X c None",
/* pixels */
"3X3X3X3X3X3X3X3X3X3X3X3X3X3X3X3X3X3X3X3X3X3X3X3X3X3X3X3X3X3X3X3X3X3X3X3X3X3X3X3X3X3X3X3X3X3X3X3X3X3X3X3X3X3X3X3X3X3X3X3X3X3X3X3X",
"3X3X3X3X3X3X3X3X3X3X3X3X3X3X3X3X3X3X3X3X3X3X3X3X3X3X3X3X3X3X3X3X3X3X3X3X3X3X3X3X3X3X3X3X3X3X3X3X3X3X3X3X3X3X3X3X3X3X3X3X3X3X3X3X",
"3X3X3X3X3X3X3X3X3X3X3X3X3X3X3X3X3X3X3X3X3X3X3X3X3X3X3X3X3X3X3X3X3X3X3X3X3X3X3X3X3X3X3X3X3X3X3X3X3X3X3X3X3X3X3X3X3X3X3X3X3X3X3X3X",
"3X3X3X3X3X3X3X3X3X3X3X3X3X3X3X3X3X3X3X3X3X3X3X3X3X3X3X3X3X3X3X3X3X3X3X3X3X3X3X3X3X3X3X3X3X3X3X3X3X3X3X3X3X3X3X3X3X3X3X3X3X3X3X3X",
"3X3X3X3X3X3X3X3X3Xa a a a a a a a a 3X3X3X3X3X3X3X3X3X3X3X3X3X3X3X3X3X3X3X3X3X3X3X3X3X3X3X3X3X3X3X3X3X3X3X3X3X3X3X3X3X3X3X3X3X3X",
"3X3X3X3X3X3X3X3X3X3X3X3X3X3X3X3X3X3X3X3X3X3X3X3X4X3X3X3X3X3X3X3X3X3X3X3X3X3X3X3X3X3X3X3X3X3X3X3X3X3X3X3X3X3X3X3X3X3X3X3X3X3X3X3X",
"3X3X3X3X3X3X3X3X3X3X3X3X3X3X3X3X3X3X3X3X4X4X4X3X3X3X3X3X3X3X3X3X3X3X3X3X3X3X3Xa 3X3X3X3X3X3X3X3X3X3X3X3X3X3X3X3X3X3X3X3X3X3X3X3X",
"3X3X3X3X3X3X3X3X3X3X3X3X3X3X3X3X3X3X4X4X4X4X4X3Xp 3X3X4X3X3X3X3X3X3X3X3X3X3X3X3Xa a 3X3X3X3X3X3X3X3X3Xa 3X3X3X3X3X3X3X3X3X3X3X3X",
"3X3X3X3X3X3X3X3X3X3X3X3X3X3X3X3X3X_ S 4X7 7 p 4X4X3X3X3X3X3X3X3X3X3X3X3X3X3X3X3X3X3X3X3X3X3X3X3X3X3Xa a 3X3X3X3X3X3X3X3X3X3X3X3X",
"3X3X3X3X3X3X3X3X3X3X3X3X3X3X3X4X| 4Xf Y . : R 4Xa 4Xp 3X4X3X3X! 3X3X3X3X3X3X3X3X3X3X3X3X3X3X3X3X3X3Xa 3X3X3X3X3X3X3X3X3X3X3X3X3X",
"3X3X3X3X3X3X3X3X3X3X3X3X3X3X4X^ X.h Z k q = p a q q 4Xp 3X3X3X3X! 3X3X3X3X3X3X3X3X4X4X3X3X3X3X3X3X3Xa 3X3X3X3X3X3X3X3X3X3X3X3X3X",
"3X3X3X3X3X3X3X3X3X3X3X3X3X4X4Xf T X 3.J a 1.a a = a a p 3X3X3X3X3X! 3X3X3X3X4X4Xx.~ 4X3X3X3X3X3X3Xa 3X3X3X3X3X3X3X3X3X3X3X3X3X3X",
"3X3X3X3X3X3X3X3X3X3X3X3X3X3Xq z.t.a = q.a >.a a = a 3X3X3X3X3X3X3X3X! ! 4X3X;.} 4X4 9.3X4X4X3X3X3X3X3X3X3X3X3X3X3X3X3X3X3X3X3X3X",
"3X3X3X3X3X3X3X3X3X3X3X3X3Xp 3XS.a a 1.1.q ,Xa >.a < 4X3X3X3X3X3X3X3X3X4X4XU.!.D V.r.p 4X~ 4X3X3X3X3X3X3X3X3X3X3X3X3X3X3X3X3X3X3X",
"3X3X3X3X3X3X3X3X3X3X3X3X3X3X3Xa a a 1.a ,X,X,Xp.7.4X3X3X3X3X3X3X3X3X3X3X>X2X+X+X` a J./ k.4X4X3X3X3X3X3X3X3X3X3X3X3X3X3X3X3X3X3X",
"3X3X3X3X3X3X3X3X3X3X3X3X3X3Xa a a a a ,X,X,X,X,XOX4Xp p 3X3X3X3X3X3X3X>X4X:X,Xn >XD.= S.$ 8.4X3X3X3X3X3X3X3X3X3X3X3X3X3X3X3X3X3X",
"3X3X3X3X3X3X3X3X3X3X3X3X3X0 z.a a a ;X,X,X,X,X,XZ.4X3X3X3X3X3X3X3X3X3X3X>X,X,X,X,X1.a a H.v 4X3X3X3X3X3X3X3X3X3X3X3X3X3X3X3X3X3X",
"3X3X3X3X3X3X3X3X3X3X3X3Xp 3XS.0 a e.f.,X,X,X,X<X>Xq 3X3X3X3X3X3X3X3X3X3X,X,X,X,X,X1.a a a u 3X3X3X3X3X3X3X3X3X3X3X3X3X3X3X3X3X3X",
"3X3X3X3X3X3X3X3X3X3X3X3X3X3Xq p 1 `.A.Z.Z.,X,X<X~.3X3X3X3X3X3X3X3X3X3X4X4X,X,X,X,Xa a a j q 3X3X3X3X3X3X3X3X3X3X3X3X3X3X3X3X3X3X",
"3X3X3X3X3X3X3X3X3X3X3X3X3X3X3X3X0 =X# s.>X<X,Xc.6.3X3X3X3X3X3X3X3X3X>X4X@X,X,X,X<X,Xa x 4X3X3X3X3X3X3X3X3X3X3X3X3X3X3X3X3X3X3X3X",
"3X3X3X3X3X3X3X3X3X3X3X3X3X3X3X3X3X>X4X>X=X<X3X,X:X3X3Xa a 3X3X3X3X3X3X>X:X6.,X,X) U g 4 +.S.3X3X3X3X3X3X3X3X3X3X3X3X3X3X3X3X3X3X",
"3X3X3X3X3X3X3X3X3Xa a 3X3X3X3X3X3X3X3X>X>X,X3X>X>X3X3X3X3Xa a a 3X3X3X>X3X>X>X,X*Xa.m.+XC p 3X3X3X3X3X3X3X3X3X3X3X3X3X3X3X3X3X3X",
"3X3X3X3X3X3X3Xa a 4X! ! 3X3X3X3X3X3X3X3X3X4X3X>X>X3X3X3X3X3X3X3Xa 3X3X3X3X>X>X,X4X'.:XY.0 q 3X3X3X3X3X3X3X3X3X3Xa 3X3X3X3X3X3X3X",
"3X3X3X3X3X3Xa 3X3X! ! 3X3X3X3X3X3X3X3X3X3X3X3X3X3X3X3X3X3X3X4X4X3X3X3X3X3X3X3X4X3X>X>X3X3X3X3X3X3X3X3X3X3X3X3X3Xa 3X3X3X3X3X3X3X",
"3X3X3X3X3Xa 3X3X3X! 3X3X3X3X3X3X3X3X3X3X3X3X3X3X3X3X3X3X4X4X-.XX4X3X3X3X3X3X3Xa 3X3X3X3X3X3X3X3X3X3X3X3X! 3X3Xa 3X3X3X3X3X3X3X3X",
"3X3X3X3X3X3X3X3X3X3X4X3X3X3X3X3X3X3X3X3Xa 3X3X3X3X3X3X4X%.R.W =.4XW 4X3X3X3X3X3Xa 3X3X3X3X3X3X3X3X3X3X3X! 3X3Xa 3X3X3X3X3X3X3X3X",
"3X3X3X3X3X3X3X3X4X4X3X3X3X3X3X3X3X3X3Xa a 3X3X3X3X3X4X=.v.b._.>X! -.XX4X3X3X3X3Xa 3X3X3X3X3X3X3X3X4X4X3X! 3X3X3X3X3X3X3X3X3X3X3X",
"3X3X3X3X3X3X3X4X4X4X7 4X3X4X4X3X3X3X3X3X3X3X3X3X3X3X3XW |.:X! $XE Q 0.4X4X3X3X3X3X3X3X3X3X3X3X4XA 4X4X3X3X3X3X3X3X3X3X3X3X3X3X3X",
"3X3X3X3X3X3X4X4X7 d 4X4X4X4X3X3X3X3X3X3X3X3X3X3X3X3XQ _.>X$X,X,X_.>X[ XX4X3X3X3X3X3X3X3X3X3X4XG s M i 3X4X4X3X3X3X3X3X3X3X3X3X3X",
"3X3X3X3X3X3X3Xt l 4Xa F.@ oXN.3X4X4X3X3X3X3X3X3X3X3X3XQ $X,X,X,X,X:X>X&.4X4X3X3X3X3X3X3X3X4X5.] :.~.t 4X4X4X3X3X3X3X3X3X3X3X3X3X",
"3X3X3X3X3X3Xp 4Xq a = = >Xi.3X3X4X3X3X3X3X3X3X3X3X3X3X! ,X,X,X,X,X>X>XQ ! 3X3X3X3X3X3X3X3X3Xy.W.y G.a q m   4X3X3X3X3X3X3X3X3X3X",
"3X3X3X3X3X3X3Xq a a a 1.a ) ,XoXa 4X4X3X3X3X3X3X3X3XQ { 0.,X,X,X,X,X$XQ ! 3X3X3X3X3X3X3X3X>X~.B.,X,X1.T.% L 4X3X3X3X3X3X3X3X3X3X",
"3X3X3X3X3X3X3Xa a a 1.a ) ,X,X>X>X<X3X3X3X3X3X3X3XQ _.>X*.! ,X,X1X0.Q 3X3X3X3X3X3X3X3X3X3X3XC.,X,X,X,X].T.b 4X3X3X3X3X3X3X3X3X3X",
"3X3X3X3X3X3X0 4Xa a a ,X,X,X,X,X>X>X3X3X3X3X3X3X3X3XQ %X_.>X,X,X! &.! 4X3X3X3X3X3X3Xa a 3X3X,X,X,X,X,X>X*Xt 4X3X3X3X3X3X3X3X3X3X",
"3X3X3X3X3Xp 4X4Xd a V ,X,X,X,X,X>X3X3X3X3X3X3X3X3X3X3X3XQ $X-X<X_.>X>X! 3X3X3Xa a a 3X3X3X; P ,X,X,X,X,XM.t 3X3X3X3X3X3X3X3X3X3X",
"3X3X3X3X3X3Xq z p I n.D.,X,X,X4X4X3X3X3X3X4X4X3X3X3X3X3X3X3X4Xb.! $X$XQ ! 4X3Xa 3X3X3X3X>X~.m 5 ,X,X<XK 8 q 3X3X3X3X3X3X3X3X3X3X",
"3X3X3X3X3X3X3X3Xq ^.o.' ( ,X<X4X3X3X3X4X4X4X, 3X3X3X3X3X3X3X3X3X3X3X3X4X4X4X3X3X3X3X3X3X3XC.,. XoX<X8 B y i 3X3X3X3X3X3X3X3X3X3X",
"3X3X3X3X3X3X3X3X3X3X4X.X~.OX2.>X>X>X4X  > q 6 4X4X4X3X3X3X3X3X3X3X3X4X4X4XL.3X3X4X3X3X3X3X3Xq C.P.(.>. XU.i 3X3X3X3X3X3X3X3X3X3X",
"3X3X3X3X3X3X3X3X3X3X3X3X3X4X3X>X>X3X4Xo O 6  .4X4XF 3X3X3X3X3X3X3X4X4XE.g.k.3X4X4X3X3X3X3X3X3X3Xq N 9 C.B.i 3X3X3X3X3X3X3X3X3X3X",
"3X3X3X3X3X3X3X3X3X3X3X3X3X3X3X3X3X3Xq e  .8 H & u 4Xa a a 3X3X3X3X3X/.#.4X,X3X>X4X4X3X3X3X3X3X3X3X3X4X3Xq q 3X3X3X3X3X3X3X3X3X3X",
"3X3X3X3X3X3X3X3X3X3X3X3X3X3X3X3X3X3Xq ..a K ).= ].4., 4X4X3X3X3X3Xg.@.3 ,X,X,X9.I.4X3X3X3X3X3X3X3X3X3X3X3X3X3X3X3X3X3X3X3X3X3X3X",
"3X3X3X3X3X3X3X3Xa 3X3X3X3X3X3X3X3X3X3Xa a D.@X{.a ..7 4X4X3X3X3X3X4Xw ,X,X,X,X,X[.4X3X3X3X3X3X3X3X3X3X3X3X3X3X3X3X3X3X3X3X3X3X3X",
"3X3X3X3X3X3X3Xa a 3X3X3X3X3X3X3X3X3X4X8 D.@X{.D.,X,X~.u.4X4X3X3X3Xq K.D.,X,X,XD.O.4X3X3X3X3X3X3X3X3X3X3X3X3X3X3X3X3X3X3X3X3X3X3X",
"3X3X3X3X3X3X3Xa 3X3X3X3X3X3X3X3X3Xq t , a D.D.,X,X,X,XQ.>X3X3X3X3Xu.- D.D.,XD.* 6 4X3X3X3X3X3X3X3X3X3X3X3X3X3X3X3X3X3X3X3X3X3X3X",
"3X3X3X3X3X3Xa 3X3X3X3X3X3X3X3X3X3Xq ..6 e q ,X,X,X,X,X,X>X3X3X3XS.S.a 1.{.}.c j i 3X3X3X3X3X3X3X3X3X3X3X3X3X3X3X3X3X3X3X3X3X3X3X",
"3X3X3X3X3Xa 3X3X3X3X3X3X3X3X3X3X3X3Xq i ..j.$.,X,X,X,X3X3X3X3X3X3X4 l.d.g.$.a 1.u.3X3X3X3X3X! 3X3X3X3X3X3X3X3X3X3X3X3X3X3X3X3X3X",
"3X3X3X3X3X3X3X3X3X3X! ! ! 3X3X3X3X3X3X3X~.<.+ y ,X,X4X4X3X3X3X3Xq 2 4Xa c j l.h.S.3X3X3X3X3X! 3X3X3X3X3X3X3X3X3X3X3X3X3X3X3X3X3X",
"3X3X3X3X3X3X3X3X3X! ! 3X3X3X3X3X3Xa 3X3X3X3XoX#X&Xw.u p 3X3X3X3Xq p q 0 a a 4Xq q 3X3X3X3X! 3X3X3Xa 3X3X3X3X3X3X3X3X3X3X3X3X3X3X",
"3X3X3X3X3X3X3X3X! 3X3X3X3X3X3X3X3Xa 3X3X3X3X3X3X4X4X>X:X>X3X3X3X3X3Xq u a r q 0 u 3X3X3X! 3X3X3X3Xa a 3X3X3X3X3X3X3X3X3X3X3X3X3X",
"3X3X3X3X3X3X3X3X3X3X3X3X3X3X3X3Xa 3X3X3X3X3X3X3X3X3X3X3X3X3X3X3X3X3X3X3X4X4Xq u p 3X3X3X! 3X3X3X3X3Xa a 3Xa 3X3X3X3X3X3X3X3X3X3X",
"3X3X3X3X3X3X3X3X3X3X3X3X3X3X3X3Xa 3X! 3X3X3X3X3X3X3X3X3X3X3Xa 3X3X3X3X3X3X3X3X3X3X3X3X3X3X3X3X3X3X3X3X3Xa 3X3X3X3X3X3X3X3X3X3X3X",
"3X3X3X3X3X3X3X3X3X3X3X3X3X3X3X3Xa 3X3X! ! ! ! ! ! ! ! ! 3X3Xa a 3X3X3X3X3X3X3X3X3X3X3X3X3X3X3X3X3X3X3X3X3X3X3X3X3X3X3X3X3X3X3X3X",
"3X3X3X3X3X3X3X3X3X3X3X3X3X3X3X3X3X3X3X3X3X3X3X3X3X3X3X3X3X3X3X3Xa a 3X3X3X3X3X3X3X3X3X3X3X3X3X3X3X3X3X3X3X3X3X3X3X3X3X3X3X3X3X3X",
"3X3X3X3X3X3X3X3X3X3X3X3X3X3X3X3X3X3X3X3X3X3X3X3X3X3X3X3X3X3X3X3X3X3X3X3X3X3X3X3X3X3X3X3X3X3X3X3X3X3X3X3X3X3X3X3X3X3X3X3X3X3X3X3X",
"3X3X3X3X3X3X3X3X3X3X3X3X3X3X3X3X3X3X3X3X3X3X3X3X3X3X3X3X3X3X3X3X3X3X3X3X3X3X3X3X3X3X3X3X3X3X3X3X3X3X3X3X3X3X3X3X3X3X3X3X3X3X3X3X",
"3X3X3X3X3X3X3X3X3X3X3X3X3X3X3X3X3X3X3X3X3X3X3X3X3X3X3X3X3X3X3X3X3X3X3X3X3X3X3X3X3X3X3X3X3X3X3X3X3X3X3X3X3X3X3X3X3X3X3X3X3X3X3X3X",
"3X3X3X3X3X3X3X3X3X3X3X3X3X3X3X3X3X3X3X3X3X3X3X3X3X3X3X3X3X3X3X3X3X3X3X3X3X3X3X3X3X3X3X3X3X3X3X3X3X3X3X3X3X3X3X3X3X3X3X3X3X3X3X3X",
"3X3X3X3X3X3X3X3X3X3X3X3X3X3X3X3X3X3X3X3X3X3X3X3X3X3X3X3X3X3X3X3X3X3X3X3X3X3X3X3X3X3X3X3X3X3X3X3X3X3X3X3X3X3X3X3X3X3X3X3X3X3X3X3X",
"3X3X3X3X3X3X3X3X3X3X3X3X3X3X3X3X3X3X3X3X3X3X3X3X3X3X3X3X3X3X3X3X3X3X3X3X3X3X3X3X3X3X3X3X3X3X3X3X3X3X3X3X3X3X3X3X3X3X3X3X3X3X3X3X",
"3X3X3X3X3X3X3X3X3X3X3X3X3X3X3X3X3X3X3X3X3X3X3X3X3X3X3X3X3X3X3X3X3X3X3X3X3X3X3X3X3X3X3X3X3X3X3X3X3X3X3X3X3X3X3X3X3X3X3X3X3X3X3X3X",
"3X3X3X3X3X3X3X3X3X3X3X3X3X3X3X3X3X3X3X3X3X3X3X3X3X3X3X3X3X3X3X3X3X3X3X3X3X3X3X3X3X3X3X3X3X3X3X3X3X3X3X3X3X3X3X3X3X3X3X3X3X3X3X3X",
"3X3X3X3X3X3X3X3X3X3X3X3X3X3X3X3X3X3X3X3X3X3X3X3X3X3X3X3X3X3X3X3X3X3X3X3X3X3X3X3X3X3X3X3X3X3X3X3X3X3X3X3X3X3X3X3X3X3X3X3X3X3X3X3X",
"3X3X3X3X3X3X3X3X3X3X3X3X3X3X3X3X3X3X3X3X3X3X3X3X3X3X3X3X3X3X3X3X3X3X3X3X3X3X3X3X3X3X3X3X3X3X3X3X3X3X3X3X3X3X3X3X3X3X3X3X3X3X3X3X",
"3X3X3X3X3X3X3X3X3X3X3X3X3X3X3X3X3X3X3X3X3X3X3X3X3X3X3X3X3X3X3X3X3X3X3X3X3X3X3X3X3X3X3X3X3X3X3X3X3X3X3X3X3X3X3X3X3X3X3X3X3X3X3X3X"
};
