/* XPM */
static char *_15e62102fa44277ccd116f3e18e37a0zVpasKsJeGAjrDJu[] = {
/* columns rows colors chars-per-pixel */
"64 64 4 1 ",
"  c #ED1C24",
". c #FF7E00",
"X c #FFC20E",
"o c white",
/* pixels */
"oooooooooooooooooooooooooooooooooooooooooooooooooooooooooooooooo",
"oooooooooooooooooooooooooooooooooooooooooooooooooooooooooooooooo",
"oooooooooooooooooooooooooooooooooooooooooooooooooooooooooooooooo",
"oooooooooooooo.oooooooooooo oooooooooooooooooooooooooooooooooooo",
"oooooooooooooo.ooooooooooooooooooo ooooooooooooooooooooooooooooo",
"ooooooooooooooooooooooooooooooo.oooooooooooooooooooooooooooooooo",
"oooooooooooooooooo.ooo  oooooooooooooooooooooooooooooooooooooooo",
"oooooooooo.ooo ooo.oooo.oooooooooooooooooo    oo  oooooooooooooo",
"oooooooooooooooooooooo ooooooooooo    ooooooooooo  ooooooooooooo",
"oooooooooooooooooooooo oooooo  ooooooo     ooooooo ooooooooooooo",
"ooooooooooooooooooooooooooooooooooooooooooo oooooooooooooooooooo",
"oooooooooooooooooooooooooooooooooooooooooooooooooooooo.ooooooooo",
"ooooooo ooooooooooo  ooooooooooooooooooooooooooooooooo.ooooooooo",
"ooooooo oooooooooo    oooooooooooooooooooooooooo ooooo.o ooooooo",
"oooooooooo ooooooo .. oooo oooo oooooooooo ooooooooooooo ooooooo",
"ooooooooooo oooooooX.oooo  ooooooooooo     oooooooooooooooo.oooo",
"oooooooo oooooooooo .oooo.X ooooooooo . X   oooooooooo oooo.oooo",
"oooooooooooooooooo ooooooXXoooooooooo ..X. ooooooooooooooooo.ooo",
"ooooooooooooooo.oooooooooooooooooooooooo.X  oooooooooooooooooooo",
"oooooo ooooooo . ooooo.Xooooooooo ooooooo. ooooooooooooooooooooo",
"oooooo ooooooooooooooo.oooooo.oooooooooooooooooo.ooooooooooooooo",
"oooooo ooooooooooooooo oooooooo  ooooXoooooooooo.ooooooooooooooo",
"oooooooooooooo.oooooooooooooooooooooooXXXoo.  oooooooooooooooooo",
"ooooooooooooo ooooooooooooooooooooooooo .XX. ooooooooooooooooooo",
"ooooooooo oooooooooooooooo oooooooooooo ..   ooooooooooooooooooo",
"ooooooooo.ooooooooooooooooo.ooooooo.oooooooooooooooo ooooooooooo",
"oooooooo.oooooooooooo  oooooooooooo..oooooooooooooo  oooooo oooo",
"oooooo..ooooooooooooo.ooooooooooooooooooooooooooooooooooooo oooo",
"oooooooooo .ooooo  ooooooooooooooooooooooooooooooooooooooooooooo",
"oooooooooo .oooo.XXoooooooooo.oooooooooooooooooooooooooooo ooooo",
"ooooooooo X. oooo .ooooooooo ..ooooooooooooo  ooooo oooooo ooooo",
"oooooooooo  ooooo oooooooooo .X.oooooooooooo oooo   oooooo ooooo",
"oooooooooo  oooooooooooooooo   XXoooooooooooooo.    oooooooooooo",
"oooooooooo oo.oooooooooooooooo  .. oooooo ooooo.    oooooooooooo",
"oooooooooooo ..oooooooooooooooo    oooo  oooooo..   oooooooooooo",
"oooooo oooo  ....oooooooooooooooooooooooooooooo.X oooooooooooooo",
"ooooo .ooo     Xo.ooooo..ooooooooooooooooooooooX.. ooooooooooooo",
"oooooo.ooo    oooooooo ..oooooooooooooooooooooooo. ooooooooooooo",
"oooooooooooooooooooooo .X.oooooooooooooooooooooooooooooooooooooo",
"oooooooooooooooooooooo .X.oooooooooooooooooooooooooooooooooooooo",
"ooooooo ooooooooooooooo X.oooooooooooooooooooooooooooooooooooooo",
"ooooooooooooooooooooooo X ooooooooooo. o   ooooooooooooooooooooo",
"oooooo.oooooooooooooooooooooooo ooooo..   oooooooooooooooooooooo",
"oooooo.ooooooo oooo Xooooooooo ooooo.X. ooooooooooooooooo oooooo",
"oooooooooooooooooo  ..oooooooo oooo XX  oooooooooo.ooooo ooooooo",
"ooooooooooo oooo.o    ooooooooooooooXXoooo ooooooo.ooooo ooooooo",
"oooooooooo oooooooooooooooooooooooooooooo . oooooo  oooo ooooooo",
"ooooooooooooooooooooooooooooooooooooooXXX.. oooooo ooooo ooooooo",
"oooo ooooooooooooooooooooooooooooooo.....  ooooooooooooo..oooooo",
"oooo ooooooooo oooooooooooooooooooo  ..   oooooooooooooooooooooo",
"ooooooooooooooo.ooooooooooooo ooooo        ooooooooooooooooooooo",
"ooooooooooooooo.o.oooooooo oo oo.oooooo oooooooooo ooooooo..oooo",
"ooooooooooooooooo.oooooooo oooooooooooooooooooo    oooooooo.oooo",
"oooooooooooooooooooooooooooooooooooooooooooooooooooooooooooooooo",
"ooooooooooooooooooooooo oooooooooooooooooooooooooooooooooooooooo",
"oooooo  ooooooooooooooo ooooooooooooooo oooooooooooo  oooooooooo",
"oooooo ooooooooo oooooooooooooooo.oooooooooooooooooo ooooooooooo",
"ooooooooooooooooo oooooooooooooooooooooooooooooooooooooooooooooo",
"oooooooooooooooooooooooooooooooooooooooooooooooooooooooooooooooo",
"oooooooooooo ooooooooooooooooooo oooooooooooooo.oooooooooooooooo",
"oooooooooooooooooooooooooooooooo oooooooooooooo.oooooooooooooooo",
"oooooooooooooooooooooooooooooooooooooooooooooooooooooooooooooooo",
"oooooooooooooooooooooooooooooooooooooooooooooooooooooooooooooooo",
"oooooooooooooooooooooooooooooooooooooooooooooooooooooooooooooooo"
};
