/* XPM */
static char *a39a5497eeb0449cd58645a7a93534ceK2RsgxcDQepNAaQJ[] = {
/* columns rows colors chars-per-pixel */
"64 64 4 1 ",
"  c None",
". c #ED1C24",
"X c #FF7E00",
"o c #FFF200",
/* pixels */
"                                                                ",
"                                                                ",
"                                                                ",
"                                                                ",
"                                                                ",
"         ..                         oo  .                       ",
"            o             . o                                   ",
"                       .. ..                   .                ",
"                     XX                        .                ",
"    X    X..           XX              .                        ",
"                     .      o          . X           X .        ",
"           .                XX                        X         ",
"           .    .            XX            .  o                 ",
"                .              XX         oo                    ",
"                                                                ",
"                                ..                 o            ",
"                          .                                     ",
"                     XX                                         ",
"     .      o                     XX               .            ",
"     .      X       .                                     ..    ",
"            X                                X      X  X        ",
"                    X                     .              ..     ",
"                .               o                               ",
"                           ..              X     .              ",
"                              .X                                ",
"                                     X o                        ",
"                                                                ",
"                 X        X                 X                   ",
"           o                                                    ",
"                             .  X.                              ",
"                .       o                                       ",
"       .         X      .                          .     X      ",
"       .                                 .         .     X      ",
"       . .                            o            .            ",
"       . .                                                      ",
"       .   o               .                   X                ",
"        .X oo                          oo               X       ",
"                           .     .       ooo                    ",
"              .               X             oo             .    ",
"          X         .                  ..           X   .       ",
"                                       .                        ",
"                                                      o         ",
"                                                       X        ",
"                        X                  ..    .              ",
"                   XX   X     .           ..        X    .      ",
"                             .    X                             ",
"                                            .                   ",
"                                                                ",
"       o         .       .                                      ",
"            .    X       .                                      ",
"        o                    ..            .             .      ",
"        o                              ..  .                    ",
"        o   XX                      X                           ",
"                    .   ..         .                            ",
"           .X                                                   ",
"            X                                          o        ",
"             X                               .      .  o..      ",
"             . o                      X                o        ",
"                             .        X          .     o        ",
"                              ..                   o            ",
"                                                                ",
"                          oX                                    ",
"                                                                ",
"                                                                "
};
