/* XPM */
static char *result[] = {
/* columns rows colors chars-per-pixel */
"64 64 72 1 ",
"  c #EF281F",
". c #EF381F",
"X c #F43C17",
"o c #F1331A",
"O c #ED1C24",
"+ c #ED1F28",
"@ c #ED2027",
"# c #EE252C",
"$ c #EE282F",
"% c #F23D24",
"& c #EE2B32",
"* c #F02A31",
"= c #EF3037",
"- c #EE3239",
"; c #EF383F",
": c #F2353C",
"> c #F95B0D",
", c #F54514",
"< c #F44E1A",
"1 c #F75210",
"2 c #F55B14",
"3 c #F1511A",
"4 c #F85B18",
"5 c #FC6B07",
"6 c #FA6309",
"7 c #FD7403",
"8 c #FF7D00",
"9 c #F67C0F",
"0 c #F46314",
"q c #F57915",
"w c #F3432A",
"e c #F65221",
"r c #F14A50",
"t c #F1585D",
"y c #F46369",
"u c #F36C71",
"i c #F67C7F",
"p c #FF8601",
"a c #FF8E02",
"s c #F8810D",
"d c #FF9503",
"f c #FF9B02",
"g c #F7970F",
"h c #F68811",
"j c #FFA403",
"k c #FFAD03",
"l c #F9A50C",
"z c #FFAB09",
"x c #FEB302",
"c c #FFBB06",
"v c #FFB30A",
"b c #FFBB0C",
"n c #FFC403",
"m c #FFCE00",
"M c #FFC10E",
"N c #FFCE0B",
"B c #FED605",
"V c #FEDC04",
"C c #FFD309",
"Z c #FFD808",
"A c #FFE301",
"S c #FFEC01",
"D c #FFF200",
"F c #FC934E",
"G c #FA9168",
"H c #F67C80",
"J c #F78B8E",
"K c #F89C9F",
"L c #FCB597",
"P c #FBC7C8",
"I c #FDE1E2",
"U c white",
/* pixels */
"UUUUUUUUUUUUUUUUUUUUUUUUUUUUUUUUUUUUUUUUUUUUUUUUUUUUUUUUUUUUUUUU",
"UUUUUUUUUUUUUUUUUUUUUUUUUUUUUUUUUUUUUUUUUUUUUUUUUUUUUUUUUUUUUUUU",
"UUUUUUUUUUUUUUUUUUUUUUUUUUUUUUUUUUUUUUUUUUUUUUUUUUDDUUUUUUUUUUUU",
"UUUUUUUUUUUUUUUUUUUUUUUUUUUUUUUUUUUUUUUUUUUUUUUUUDDDUUUUUUUUUUUU",
"UUUDDDDDUUUUUUUUUUUUUUUUUUUUUUUUUUUUUUUUUUUUUUDDDUDUUUUUUUUUUUUU",
"UUUDUUUUDDUUUUUUUUUUUUUUUUUOOOOOOUUUUUUUUUUUDDUUUUDUUUUUUUUUUUUU",
"UUUUDUUUUUDDDUUUUUUUUUUUUOOUUUUUOOOUUUUUUUDDUUUUUUDUUUUUUUUUUUUU",
"UUUUUDDDUUUUUDDUUUUUUUUUUUUPPPPPPPPUUUUDDDUUUUUUUDUUUUUUUUUUUUUU",
"UUUUUUUUDUUUUUUDDUUUUUUUUKKPPPPPPUUPUUDDUUUUUUUUDDUUUUUUUUUUUUUU",
"UUUUUUUUDUUUUUUUUDDUUUUPHHK&&*#$&&-KKPUUUUUUUUUUDUUUUUUUUUUUUUUU",
"UUUUUUUUODDUUUUUUUUDUUKyK++;==;;&KP;PPPUUUUUUUUDDUUUUUUUUUUUUUUU",
"UUUUUUOOOUUDUUUUUUUUUKH&O+;OOOOOOOOOOKKPUUUUUUDDUUUUUUUUUUUUUUUU",
"UUUUUOOUUUUUDDUUUUUUPiOO;OOOOOooOOOOOOPKPUUUUDUUUUUUUUUUUUUUUUUU",
"UUUUOOUUUUUUUDUUUUUUP@O;OOOoX1oOOOOOOOOPKUUUUUUUUUUUUUUUUUUUUUUU",
"UUUUOUUUUUUUUUDUUUUU=@POOoX66,77OooOOOOOPKUUUUUUUUUUUOUUUUUUUUUU",
"UUUUUUUUUUUUUUDDPPPP;-OO,>58887#,oOOOOOO;KPUUUUUUUUUUOOUUUUUUUUU",
"UUUUUUUUUUUUUPPKPPULwoo168888dp877ooOOOOOKiUUPPPUUUUUUOUUUUUUUUU",
"UUUUUUUUUUUUPHK*&we<%o,1888jda88877OOOOOO-#PKiUPPUUUUUUOUUUUUUUU",
"UUUUUUUUUUUUP*;O34F7877pafkl8b88f87oOOOOOOOyK#&;KPPUUUUOUUUUUUUU",
"UUUUUUUUUUUU=O;o178858fpffjMbbada8oo,oOOOOO&OOi&&UPPUUUUOUUUUUUU",
"UUUUUUUUUUUU*$Oo8888dflvbMMbaMaMpq77O,,oO3.OOOOOO-PKUUUUOUUUUUUU",
"UUUUUUUUUUUU-OO78O8dfzbbbbbMMMMbba7877O093OOOOOOOOOKPUUUOODDDUUU",
"UUUUUUUUUUUU&OO778pdbbMMMNMMMMMMMaap88xxsBxO3oOOOOO-PDDDDOUUUDDD",
"UUUUUUUUUPP;OOO788pbb8MNMNNMMMMMb888afnASBO23OOOOOO@PUUUUUUUUUDU",
"UUOUUUUPPPK;-O,888zb8MNCNANNCMMMMbbpdfDSADDVl3.OOOOOPUUUUUUUDDUU",
"UOOUUUPHH&&;%o788888MMNSCSSMNNMMMMbzbASaDDDDVcOOOOOOUUUUUUUDUUUU",
"UOUUUUP@+=@eGX88888MMMASDDSSSCNNMMMzbA8DDDDDDlOOOOO;UUUDDDDUUUUU",
"UOUUUU$OOO%,878788baMMSSDDDASCNMMMcdMbDDDDDDVOOOOOO;UUDUUUUUUUUU",
"UOUUUK@OOOO8>8888zbabMMDDDDDDDSCNbpMMSDDDDDS2OOOO-&DDDUUUUUUUUUU",
"UOUUPyOOOO5278888avvMMMDDDDDDDSSz8MMSSMDDDVj,OOOODDDUUUUUUUUUUUU",
"UOUUUOOOOOOO88888lbbMANbDDDDDDDAbMMMSMSDDSkASxOOyO@;UUUUUUUUUUUU",
"UOUU;OOOOOO8888p8bbMMSSAZDDDDDaabfaMMMSSDcSSAooOOO;UUUUUUUUUUUUU",
"UUUUUOOOOO7 888888MMMMSDDDDDDjfabpbbMMMMCMAS8O,OO=UUUUUUUUUUUUUU",
"UUUUUOOOO7>788888aMMMMMMSDDDDSbbfMMbMMMMMMMb78ooOKUUUUUUUUUOUUUU",
"UUUU&$OOOOO57888zaaMMMMMMbccSDSSMzbMMMMMbMz8885,@KUUUUUUUUUOUUUU",
"UUU;OOOOOOOOOo 8bbzvMMMMMMMMMMMMbMMbMMMMMba8888,o-PUKPIUUUUOOUUU",
"UUUUOOOOOOOOOOOOObbNNNMMMMMMMMMMMMMMMMMMCz88888o,=iPuUUUUUUUOUUU",
"UUUUUU@OOOOOOOOOO<fCBCNMMMMMMMMMMMMMCVVNj8bb8888oo:JO;uKPIUUOUUU",
"UUUUUUUUKKOOOOOO3gmSSAkNNMMMMMMMMMNZZZZpAzzf88p87oO;OUUHUUUUOUUU",
"UUUUUUUUSUUUUOOO3SADDSSCNCMMdMMMMNASDDSSSxff88888OO#OOO-rPIOUUUU",
"UUUUUUUUDUUUUO-OBSDDDDASNNMMMMMbMMSDDDA8DzA8f8887O-OOOOO$uUOUUUU",
"UUUUUUUDUUUUU$OOBSDDDDDDSxjbMMMMMSDSDDDDDDSSf887OOOOOOOOOuUOUUUU",
"UUUUUUDUUUUUUIOOODDDDDDDDAp88888a8bDDDDDDDDS8877OOOOOOOOUUUUUUUU",
"UUUUUUDUUUUUuPOO3DDDDDDDSA88888888DDDDDDSDDA88785OOOOOO=IUUUUUUU",
"UUUUDDUUUUUU;PuBVADDDDDD8888887oofxDDDDDDDf88 587OOOOO;UUUUUUUUU",
"UUUUDOUUUUUU;U;BSDDDDDSjf888o 77ADSADDDDDddo7885OOOOOKOO#uUUUUUU",
"UUUDUOUUUUUUUuO#OBDDDDDSBoo7887OOOCDDDDDS8AV77OOOOOODUOOUUUUUUUU",
"UUDUUUOUUDDUU;U#OOO3qADDDBOOOOOOOOOO3hADDDSBOOOP&--OODO;UUUUUUUU",
"UDDDDDODDUUUUUuO$OOOOOOOOOOOOOOOOOOOOOOOOOOOOOJP;;UUUUDUUUUUUUUU",
"UUUUUUUOUUUUUU;Ut@OOOOOOOOOOOOOOOODOOOOOOOOOOOP;;UUUUUDUUUUUUUUU",
"UUUUUUUUOUUUUUU;@-&OOOOOOOOOO@OOOODOOOOOOOOOOOO@;UUUUUUDUUUUUUUU",
"UUUUUUUUUOOUUUUU;;OOO;PUUIPt#O@;UDUU#OOOOOOOO;UUUUUUUUUUDUUUUUUU",
"UUUUUUUUUUUOUUUUUU;=&;O;UUUUUUUUUDUOOIOOOOOOIUUUUUUUUUUUDUUUUUUU",
"UUUUUUUUUUUUOUUUUUUUPU;;UUDUUUUUDUUOuOOOOOO+-UUUDDUUUUUUUDUUUUUU",
"UUUUUUUUUUUUOOUUUUUUUUUUUUSUUUUUDUUUUOOOOOOOuuUUUUDDUUUUUUDUUUUU",
"UUUUUUUUUUUUUUOUUUUUUUUUUUDUUUUDUUUUUUUKI+O#O;UUUUUUDDUUUUDUUUUU",
"UUUUUUUUUUUUUUOOUUUUUUUUUDUUUUUDUUUUUUUUUUUUUUUOOUUUUUDDDUDUUUUU",
"UUUUUUUUUUUUUUUUUUUUUUUUUDUUUUDUUUUUUUUUUUUUUOOUUUUUUUUUDDDUUUUU",
"UUUUUUUUUUUUUUUUUUUUUUUUUDUUUDUUUUOUUUUUUOOOOUUUUUUUUUUUUUUUUUUU",
"UUUUUUUUUUUUUUUUUUUUUUUUUDUUDUUUUUUOOOOOOUUUUUUUUUUUUUUUUUUUUUUU",
"UUUUUUUUUUUUUUUUUUUUUUUUUDUDUUUUUUUUUUUUUUUUUUUUUUUUUUUUUUUUUUUU",
"UUUUUUUUUUUUUUUUUUUUUUUUUUDUUUUUUUUUUUUUUUUUUUUUUUUUUUUUUUUUUUUU",
"UUUUUUUUUUUUUUUUUUUUUUUUUUUUUUUUUUUUUUUUUUUUUUUUUUUUUUUUUUUUUUUU",
"UUUUUUUUUUUUUUUUUUUUUUUUUUUUUUUUUUUUUUUUUUUUUUUUUUUUUUUUUUUUUUUU"
};
