/* XPM */
static char *result[] = {
/* columns rows colors chars-per-pixel */
"64 64 69 1 ",
"  c #EF171E",
". c #EE181E",
"X c #F1181F",
"o c #EF291E",
"O c #F32B1A",
"+ c #EF381F",
"@ c #F33417",
"# c #F43C14",
"$ c #F1331B",
"% c #F23B1B",
"& c #ED1B23",
"* c #EF3120",
"= c #F6530F",
"- c #F8570D",
"; c #F75C08",
": c #F95D0C",
"> c #F54414",
", c #F54A11",
"< c #F84F10",
"1 c #F2441B",
"2 c #F2481C",
"3 c #F55516",
"4 c #F65C14",
"5 c #F95E10",
"6 c #FB6409",
"7 c #FB6F0A",
"8 c #FD7204",
"9 c #FF7D00",
"0 c #FA7009",
"q c #F77E0F",
"w c #F66313",
"e c #F86411",
"r c #F56A14",
"t c #F87311",
"y c #F77D11",
"u c #F87D11",
"i c #FF8502",
"p c #FF8D01",
"a c #F9850C",
"s c #F88B0E",
"d c #FF9402",
"f c #FF9B03",
"g c #F7970C",
"h c #FA930A",
"j c #FB9C0C",
"k c #F98615",
"l c #FA8F12",
"z c #FA9313",
"x c #FDA405",
"c c #FFAB03",
"v c #FCA50B",
"b c #FEAB0A",
"n c #FFBC07",
"m c #FEB40C",
"M c #FFBB0C",
"N c #FDAD10",
"B c #FFC700",
"V c #FFCA00",
"C c #FFC20E",
"Z c #FFCA0B",
"A c #FED302",
"S c #FFDC04",
"D c #FFD509",
"F c #FFD908",
"G c #FFE203",
"H c #FFEB01",
"J c #FFF200",
"K c white",
"L c None",
/* pixels */
"KKKKKKKKKKKKKKKKKKKKKKKKKKKKKKKKKKKKKKKKKKKKKKKKKKKKKKKKKKKKKKKK",
"KKKKKKKKKKKKKKKKKKKKKKKKKKKKKKKKKKKKKKKKKKKKKKKKKKKKKKKKKKKKKKKK",
"KKKKKKKKKKKKKKKKKKKKKKKKJKKKKKKKKKKKKKKKKKKKKKKKKKKKKKKKKKKKKKKK",
"KKKKKKKKKKKKKKKKKKKKKKKKJJKKKKKKKKKKKKKKKKKKKKKKKKKKKKKKKKKKKKKK",
"KKKKKKKKKKKKKKKKKKKKKKKKKJKKKKKKKKKKKKKKKKKKKJJJKKKKKKKKKKKKKKKK",
"KKKKKKKKKKKKKKKKKKKKKKKKKJKKKKKKKKKKKKKKKKKKJKKKKKKKKKKKKKKKKKKK",
"KKKKKKKKKKKKKKKKKKKKKKKKKJKKKKKKKKKKKKKKKKKJKKKKKKKKKKKKKKKKKKKK",
"KKKKKKKKKKKKKKKKKKKKKKKKKKJKKKKKKKKKKKKKKKJKKKKKKKKKKKKKKKKKKKKK",
"KKKKKKKKKKKKKKKKKKKKKKKKKKKKKK&&KKKKKKKKKKJKKKKKKKKKKKKKKKKKKKKK",
"KKKKKKKKKKKKKKKKKKLLKKKKKK&&&&&KKKKKKKLKLLLLKKKKKKKKKKKKKKKKKKKK",
"KKKKKKKKKKKKKKKKLLLLLL&&&&KKKKKKKKKKLKLLLLLLKKKKKKKKKKKKKKKKKKKK",
"KKKKKKKKKKKKKKK . &.L.LKKKKKKKKKKKKLLL&L$q<@LLLKKKKKKKKKKKKKKKKK",
"JKKKKKKKKKKKKKL &&.w.$&&LLLKKKKKKKKL&L$u:$ >LLLKKKKKKKKKKKKKKKKK",
"KJJKKKKKKKKKKKL&.w&how&LLLKKKKKKKKK&&$shpH99u=#LKKKKKKKKKKKKKKKK",
"KKKJJKKKKKKKKK&.wb4G&9w&$&LLKKKKKKK&&*pHv8&i&&<.KKKKKKKKKKKKKKKK",
"KKKKKJJKKKKKKK&.vHrJ5Msow&&KKKKKKKKK&iH9MJ9H9x-#LKKKKKKKKKKJJKKK",
"KKKKKKKJKKKKKK&1GHMJ&H1d*$&KKKKKKKKL&kN9JJJiH98,LKK&KKKKKJJJKKKK",
"KKKKKKKKJJKKKK&&HbJJJJGD9tKKKKKKKK&L&N9JJJJJH99$LKK&JJJJJKKKKKKK",
"KKKKKKKKKKKKK&&NbJJJJJJbMLKKKKKKKK&&&$DCJJJM999&LLKK&KKKKKKKKKKK",
"KKKKKKKKKKKKK&.odJJJJJJCCLKKKKKKKKKK8HCCCJCZ998&&KKK&&KKKKKKKKKK",
"KKKKKKKKKKKKK&&GFCJJJZCCN*&KKKKKKKKKC28HHHp99>&&&KKKK&KKKKKKKKKK",
"KKKKKKKKKKKKK&LHiHHJCFCCN&KKKKLLLKKKCKMvCxpHH98&KKKK&&KKKKKKKKKK",
"KKKKKKKKKKKKK&Nv$JJJCHHCbKKKLLddLKKKKKCCC8vv&99&KKK&&KKKKKKKKKKK",
"KKKKKKKKKKKKK&&8MCMDCJJCMKKLdpdppLLLLKKKLKCm&88&KKKKKKKKKKKKKKKK",
"KKKKKKKKKKKK&LL:%vpbMCbCCKKdcfZBixp9KKKKKKKKKLK&&KKKKKKKKKKKKKKK",
"KKKKKKKKKKKK&K:9&89bzb9CCKLdCAZABdpd9KKLKKKKKKKKKKKKKKKKKKKKKKKK",
"KK&&&KKKKKKKKK&&6999Lp9CCKLMSASJCSfdfLLKKKKKKKKKKKKKKKKKKKKKKKKK",
"KKKKK&&KKKKKKKKKLKo>999KKK9CAGJJJSGdpL9KLKKKKKKKLKKKKKKKKKKKKKKK",
"KKKKKKKKLLLLLLKKKKKKKKKKKK99CJJJJJHSipL9KKKKKKLKLKLKKKKKKKKKKKKK",
"KKKKKKLLLOr:xLKKKKKKKKKKKK9MCJJJJJJDM999KKKKKLLK&KLLKKKKKKKKKKKK",
"KKKKKL. Owj0MbLLLKKKKKKKKKMApZJJJJCCM9iKKKKKKL&L%@&LKLKKKKKKKKKK",
"KKKKLL&&$dCvS&>vLKKKKKKKK9CBGGGJJZZ99LLKKKKKK&$aO#:& LLKKKKKKKKK",
"KKKKK&&&6MG9CCMbLLKKKKKKK99bCGHHGGVd9LKKKKKKKr+3v7$$OLLKKKKKKKKK",
"KKKK&&&&8GNCJCSMCLKKKKKKK9Mb9bCCZGGBLL99KKKKLrzG#8f&6oO LKKKKKKK",
"KKKKKK&&0bCJJJCGzKKKKKKLLKK9MMCmibMMM99KKKKKLH0BCbci36&LKKKKKKKK",
"KKKKK&&&8MJJJJJG2KKKKLLLLLKKKLpiMMb99LKKKKKKAF8JCH9M96o&LLKKKKKK",
"KKKK&&&-mMCJJJCCKKKKLfg8MLLLKKKKLLiicKKKKKKKbLJJJSHC97$&&KKKKKKK",
"KKK&&&&8SpCMJCZMKKKL;9C9A8LLLKKKKKDLLmKKLKKK&JJJJJHiv9&&&KKKKKKK",
"KKKKK&&8jiGGGCMMCLL 9mv9C:CLLKKKKLHmHLLLKKKKDJJJJJSCb8&KKKKKKKKK",
"KKKKKKK8N8bvZ8SG&X 80viCJCBMLLKKKLH9ACLZLLKJL8JJJDC9::&LKKKKKKKK",
"KKKKKKKKK9MmM9bbL&&&&9CJJJCA8LKKKHA9JCHLZLKJKHGJiZbv6&&KKKKKKKKK",
"KKKKKKKKKKKLL9MC&&&&9dJJJJJB:LKKKJ9JJJGHm;KKKJHGvHG89:&&&KKKKKKK",
"KKKKK&&&KKKKKKKK&&&6Np9JJJh&&KKKK9JJJJJJ9LLKKKKLKGAbv8KKKKKKKKKK",
"KKKK&&KKKKKKKKKKK&88v8mMJi*o&KKKLMJJJJJV9&LKKKKKKKKKKKKKKKKKKKKK",
"KKKKKKKJJKKKKKKKL&&&89BBV8mMKKKKH%9JJJx98&KKKK&KKKKKKKKKKKKKKKKK",
"KKKKKKKJKKKK&KK&&&&&&&$$i9BV9KKKv9HHJiplk&KKK&KKKKKKKKKKKKKKKKKK",
"KKKKKKJKKKKK&KK&&&&&&&&&&&&&&KKK98vBSiHH&LKKK&KKKKKKKKKKJKKKKKKK",
"KKKKKJKKKKK&KKKK&&&&&&&&&&&&&KKKK&8ip8vB8KKKK&KKKKKKKKKKJJKKKKKK",
"KKKKJKKKKKKKKKKKKK&&&&&&&KKKKKKK&&&&#$898&KK&&KKKKKKKKKKKKJKKKKK",
"KKKKKKKKKKKKKKKKKKKKLK&&KKK&&&K&&L&&&&&&&&K&&KKKKKKKKKKKKKKJKKKK",
"KKKKKKKKKKKKKKKJKKKKKKKKKKKKKK&&&&&&&&&&&KKKKKKKKKKKKKKKKKKKKKKK",
"KKKKKKKKKKKKKKJKKKKKKKKKKKKKKKKKK&&&&&&&KKKKKKKKKKKKKKKKKKKKKKKK",
"KKKKKKKKKKKKKJJKKKKKKKKKKKKKKKKKKKKLL&&&&KKKKKKKKKKKKKKKKKKKKKKK",
"KKKKKKKKKKKJJKKKKKKKKKKKKKKKKKKKKKKKKKKKKKKKKKKKKKKKKKKKKKKKKKKK",
"KKKKKKKKJJJKKKKKKKKKKK&KKK&KKJKKKKKKKKKKKKKJKKKKKKKKKKKKKKKKKKKK",
"KKKKKKKKKKKKKKKKKKKKKK&&&&KKKJKKKKKKKKKKKKKJKKKKKKKKKKKKKKKKKKKK",
"KKKKKKKKKKKKKKKKKKKKKKKKKKKKJKKKKKKKKKKKKKKJKKKKKKKKKKKKKKKKKKKK",
"KKKKKKKKKKKKKKKKKKKKKKKKKKKJKKKKKKKKKKKKKKKJKKKKKKKKKKKKKKKKKKKK",
"KKKKKKKKKKKKKKKKKKKKKKKKKKJJKKKKKKKKKKKKKKKKJKKKKKKKKKKKKKKKKKKK",
"KKKKKKKKKKKKKKKKKKKKKKKKKKKKKKKKKKKKKKKKKKKKJKKKKKKKKKKKKKKKKKKK",
"KKKKKKKKKKKKKKKKKKKKKKKKKKKKKKKKKKKKKKKKKKKKKKKKKKKKKKKKKKKKKKKK",
"KKKKKKKKKKKKKKKKKKKKKKKKKKKKKKKKKKKKKKKKKKKKKKKKKKKKKKKKKKKKKKKK",
"KKKKKKKKKKKKKKKKKKKKKKKKKKKKKKKKKKKKKKKKKKKKKKKKKKKKKKKKKKKKKKKK",
"KKKKKKKKKKKKKKKKKKKKKKKKKKKKKKKKKKKKKKKKKKKKKKKKKKKKKKKKKKKKKKKK"
};
