/* XPM */
static char *result[] = {
/* columns rows colors chars-per-pixel */
"64 64 86 1 ",
"  c #ED171E",
". c #EF171F",
"X c #EF181E",
"o c #EF2B1D",
"O c #EF281E",
"+ c #EF281F",
"@ c #EF291F",
"# c #EF2A1E",
"$ c #F32E17",
"% c #F0271B",
"& c #F12A18",
"* c #F42D18",
"= c #F0281E",
"- c #F23917",
"; c #F13C17",
": c #F33E16",
"> c #F33E17",
", c #F1331A",
"< c #F1331B",
"1 c #F1351A",
"2 c #F2351A",
"3 c #F1361A",
"4 c #F1301C",
"5 c #EB1B23",
"6 c #ED1A21",
"7 c #ED1B21",
"8 c #EE1A21",
"9 c #ED1A22",
"0 c #EC1B22",
"q c #ED1B22",
"w c #ED1A23",
"e c #EC1B23",
"r c #ED1B23",
"t c #EE1B23",
"y c #EB1C23",
"u c #ED1D22",
"i c #EC1C23",
"p c #ED1D23",
"a c #EC1B24",
"s c #ED1B24",
"d c #EC1C24",
"f c #ED1C24",
"g c #ED2520",
"h c #FA530C",
"j c #FA5B0A",
"k c #F95D0B",
"l c #F85B0C",
"z c #F95B0C",
"x c #F95B0D",
"c c #F95C0C",
"v c #F54515",
"b c #FB6307",
"n c #FC6805",
"m c #FC6B06",
"M c #FC6D05",
"N c #FC6C06",
"B c #F86109",
"V c #FA6309",
"C c #FA600A",
"Z c #FA610A",
"A c #FA630A",
"S c #FA6409",
"D c #FC7103",
"F c #FD7303",
"G c #FD7503",
"H c #FE7403",
"J c #FE7602",
"K c #FE7703",
"L c #FD7004",
"P c #FD7104",
"I c #FD7105",
"U c #FD7204",
"Y c #FD7304",
"T c #FE7801",
"R c #FE7901",
"E c #FF7A00",
"W c #FE7A01",
"Q c #FE7B01",
"! c #FF7B01",
"~ c #FE7902",
"^ c #FF7C00",
"/ c #FF7D00",
"( c #FF7C01",
") c #FF7E00",
"_ c white",
"` c None",
/* pixels */
"________________________________________________________________",
"________________________________________________________________",
"________________________________________________________________",
"________________________________________________________________",
"_______________f________________________________________________",
"__________)_____________________________________________________",
"__________)_____________________________________________________",
"_____________f_______`_________f________________________________",
"___________________`_`_________________))_____f_________________",
"__________________`X_9__`______)________)_______________________",
"__________________`8_a`_`_______________________________________",
"__________________95`f`r``_______________`______________________",
"_________)________a#+fxar`_____________```______________________",
"________f)________rfxfffi`____________```0__`_____)_____________",
"__________________`xff)fl``__________`h5kd_``___________________",
"_________________r`ff)))r/_____f_____`S0)f_;``__________________",
"____________f_)__a`r)))))/___________kGr)fxdo`__________________",
"_________________r`@a)))r_)__________)r)))Ix1`_______ff_________",
"__________________/rrw)a@_)___________)))))~a___________________",
"____________________/D/rr____________o)))))Pr_______)___________",
"____________)_________`_//__________k;`)))+`________)___________",
"_______f___))_______________________)rkz)q`0d__f____)___f_______",
"____fff________________f______________)UKtkzd_ff________f_______",
"________________________________________``)Ur___________________",
"_______________________________*`______f________________________",
"___________````__f___________*``______f_____________)___________",
"_________``````__f__________*&`ld_*`__f_________X____)__________",
"______)_` `=2rq```__________`ldd__`___f_______X`________________",
"_________s#:1/Y```_f________lr`)fld*`_f______$X`i``X____________",
"________srrxIffq9``ff_______d`)))fle________``ij```_____________",
"__________xIf))xL#`__________)))))xd_________l``rri_.`__________",
"_________fff))))xL__________*f)))fd_________/__+fx`O____________",
"___f____``f)))))/Y________)le`f)f*`____f______+>)ffid``_________",
"_______srr#<))))`_________)d_lzZr`______f____)))ffffrd__________",
"________)lPrr))``_____``_____dd%`lzd____f___O_)ffffffd__________",
"________)__mTWGssr__````_______`_dd_____f__/__qPffff____________",
"________)____``/TY_`FnQ^```_____________f____g3/Xffq`___________",
"___________________`R^7V```_________```_f______pau4_____________",
"__________________`REc))Y^`b______`````__________``rad__________",
"____f______)_______rz))))!/`_)___```-D)```__)___________________",
"____f_____________dr))))))^`))____dM(`d```___)__________________",
"___________________`v)))))zr_____dDJf))/R``_____________________",
"__________________)!+f)))vfr______`8))))C)`_____________________",
"__________________eBI//)f+________q)))))/H____________)_________",
"___________)_____drraxANP/^______`@<))))f6_____________)________",
"___________________darr=ikV_____d/Yff))+,`_______ff_____)_______",
"_)___________________``0yssr______6x~WGfi_________f_____________",
"__)______________________________r`ff+<xT)________f_____________",
"___)_______ff____________________a`rfff`dd_______f______________",
"____)____________________________r_aar_9r________f______________",
"_____)_____________________________rrw_aa_________________)_____",
"_____________________________________`_rr_________________)_____",
"_____________________f_______________________f____________)_____",
"_________________)_____________f_____________f____________)_____",
"________________________)_______________________________________",
"________________________________)_______________)_______________",
"________________________________)_______________)_______________",
"____________)___________________________________________________",
"_______________________________________))))_____________________",
"________________________________________________________________",
"________________________________________________________________",
"________________________________________________________________",
"________________________________________________________________",
"________________________________________________________________"
};
