/* XPM */
static char *_b857dd0f1854266d7a84193f544caa2UvWeeOQdvarwtBNP[] = {
/* columns rows colors chars-per-pixel */
"64 64 3 1 ",
"  c black",
". c #00B7EF",
"X c white",
/* pixels */
"XXXXXXXXXXXXXXXXXXXXXXXXXXXXXXXXXXXXXXXXXXXXXXXXXXXXXXXXXXXXXXXX",
"XXXXXXXXXXXXXXXXXXXXXXXXXXXXXXXXXXXXXXXXXXXXXXXXXXXXXXXXXXXXXXXX",
"XXXXXXXXXXXXXXXXXXXXXXXXXXXXXXXXXXXXXXXXXXXXXXXXXXXXXXXXXXXXXXXX",
"XXXXXXXXXXXXXXXXXXXXXXXXXXXXXXXXXXXXXXXXXXXXXXXXXXXXXXXXXXXXXXXX",
"XXXXXXXXXXXXXXXXXXXXXXXXXXXXXXXXXXXXXXXXXXXXXXXXXXXXXXXXXXXXXXXX",
"XXXXXXXXXXXXXXXXXXXXXXXXXXXXXXXXXXXXXXXXXXXXXXXXXXXXXXXXXXXXXXXX",
"XXXXXXXXXXXXX             XXXXXXXXXXXXXXXXXXXXXXXXXXXXXXXXXXXXXX",
"XXXXXXXXXXXX  XXXXXXXXXXXX    XXXXXXXXXXXXXXXXXXXXXXXXXXXXXXXXXX",
"XXXXXXXXXXXX XXXXXXXXXXXXXXXXX   XXXXXXXXXXXXXXXXXXXXXXXXXXXXXXX",
"XXXXXXXXXXXX XXXXXXXXXXXXXXXXXXXX    XXXXXXXXXXXXXXXXXXXXXXXXXXX",
"XXXXXXXXXXX XXXXXXXXXXXXXXXXXXXXXXXXX    XXXXXXXXXXXXXXXXXXXXXXX",
"XXXXXXXXXXX XXXX     XXXXXXX XXXXXXXXXXXX        XXXXXXXXXXXXXXX",
"XXXXXXXXXXX XXXX XXX  XXXXXX  XXXXXXXXXXXXXXXXXX  XXXXXXXXXXXXXX",
"XXXXXXXXXXX XXXX XXXX  XXXXXX XXXXXXXXXXXXXXXXXXX XXXXXXXXXXXXXX",
"XXXXXXXXXXX XXXX XXXX  XXXXXX XXXXX      XXXXXXXX XXXXXXXXXXXXXX",
"XXXXXXXXXXX XXXX XX   XXXXXXX XXXXX XXXXX XXXXXXXX XXXXXXXXXXXXX",
"XXXXXXXXXXX XXX    XXXXXXXXXX XXXXX XXXXXX XXXXXXX XXXXXXXXXXXXX",
"XXXXXXXXXXX XXX   XXXXXXXXXXX XXXXX XXXXXX XXXXXXX XXXXXXXXXXXXX",
"XXXXXXXXXXX XXXX X  XXXXXXXXX XXXXX XXXXX  XXXXXXX XXXXXXXXXXXXX",
"XXXXXXXXXXX XXXX XXX   XXXXXX XXXXX       XXXXXXXX XXXXXXXXXXXXX",
"XXXXXXXXXXX XXXX XXXXXX  XXXX XXXXX XXXXXXXXXXXXXX XXXXXXXXXXXXX",
"XXXXXXXXXXX XXXX XXXXXXX  XXX XXXXX XXXXXXXXXXXXXX XXXXXXXXXXXXX",
"XXXXXXXXXXX XXXX XXXXXXXX  XX XXXXX XXXXXXXXXXXXXX XXXXXXXXXXXXX",
"XXXXXXXXXXX XXXX XXXXXXXXX XX XXXXX XXXXXXXXXXXXXX XXXXXXXXXXXXX",
"XXXXXXXXXXX XXXXXXXXXXXXXXXXX XXXXX XXXXXXXXXXXXX XXXXXXXXXXXXXX",
"XXXXXXXXXXX XXXXXXXXXXXXXXXXXXXXXXXXXXXXXXXXXXXXX XXXXXXXXXXXXXX",
"XXXXXXXXXXX XXXXXXXXXXXXXXXXXXXXXXXXXXXXXXXXXXXXX XXXXXXXXXXXXXX",
"XXXXXXXXXXX XXXXXXXXXXXXXXXXXXXXXXXXXXXXXXXXXXXXX XXXXXXXXXXXXXX",
"XXXXXXXXXXX XXXXXXXXXXXXXXXXXXXXXXXXXXXXXXXXXXXXX XXXXXXXXXXXXXX",
"XXXXXXXXXXX XXXXXXXXXXXXXXXXXXXXXXXXXXXXXXXXXXXXX XXXXXXXXXXXXXX",
"XXXXXXXXXXX XXXXXXXXXXXXXXXXXXXXXX   XXXXXXXXXXXX XXXXXXXXXXXXXX",
"XXXXXXXXXXX XXXXXXXXX    XXXXXXXX  X XXXXXXXXXXXX XXXXXXXXXXXXXX",
"XXXXXXXXXXX XXXXXXXXXX X XXXXXXXX XX XXXXXXXXXXXX XXXXXXXXXXXXXX",
"XXXXXXXXXXX XXXXXXXXXX   XXXXXXXX    .XXXXXXXXXXX XXXXXXXXXXXXXX",
"XXXXXXXXXXX XXXXXXXXXXXXXXXXXXXXXXXX...XXXXXXXXXX XXXXXXXXXXXXXX",
"XXXXXXXXXXX XXXXXXXXXXXXXXXXXXXXXXXX...XXXXXXXXXX XXXXXXXXXXXXXX",
"XXXXXXXXXXX XXXXXXXXXXXXXXXXXXXXXXXX...XXXXXXXXXX XXXXXXXXXXXXXX",
"XXXXXXXXXXX XXXXXXXXXXXXXXXXX      XXXXXXXXXXXXXX XXXXXXXXXXXXXX",
"XXXXXXXXXXX XXXXXXXXXXXXXX    XXXX  XXXXXXXXXXXXX XXXXXXXXXXXXXX",
"XXXXXXXXXXX XXXXXXXXXXXXX  XXXXXXXXX XXXXXXXXXXXX XXXXXXXXXXXXXX",
"XXXXXXXXXXX XXXXXXXXXXXX  XXXXXXXXXX XXXXXXXXXXXX XXXXXXXXXXXXXX",
"XXXXXXXXXXX XXXXXXXXXXXX XXXXXXXXXXX XXXXXXXXXXXX XXXXXXXXXXXXXX",
"XXXXXXXXXXX XXXXXXXXXXX XXXXXXXXXXXXX XXXXXXXXXXX XXXXXXXXXXXXXX",
"XXXXXXXXXXX XXXXXXXXXXX XXXXXXXXXXXXX XXXXXXXXXXX XXXXXXXXXXXXXX",
"XXXXXXXXXXXX XXXXXXXXXX XXXXXXXXXXXXX XXXXXXXXXXX XXXXXXXXXXXXXX",
"XXXXXXXXXXXX XXXXXXXXXXXXXXXXXXXXXXXX XXXXXXXXXXX XXXXXXXXXXXXXX",
"XXXXXXXXXXXX XXXXXXXXXXXXXXXXXXXXXXXXXXXXXXXXXXXX XXXXXXXXXXXXXX",
"XXXXXXXXXXXX XXXXXXXXXXXXXXXXXXXXXXXXXXXXXXXXXXXX XXXXXXXXXXXXXX",
"XXXXXXXXXXXXX XXXXXXXXXXXXXXXXXXXXXXXXXXXXXXXXXXX XXXXXXXXXXXXXX",
"XXXXXXXXXXXXX XXXXXXXXXXXXXXXXXXXXXXXXXXXXXXXXXXX XXXXXXXXXXXXXX",
"XXXXXXXXXXXXX XXXXXXXXXXXXXXXXXXXXXXXXXXXXXXXXXX XXXXXXXXXXXXXXX",
"XXXXXXXXXXXXX XXXXXXXXXXXXXXXXXXXXXXXXXXXXXXXXXX XXXXXXXXXXXXXXX",
"XXXXXXXXXXXXXX XXXXXXXXXXXXXXXXXXXXXXXXXXXXXXXXX XXXXXXXXXXXXXXX",
"X               XXXXXXXXXXXXXXXXXXXXXXXXXXXXXXXX XXXXXXXXXXXXXXX",
"XXXXXXXXXXXXXXX XXXXXXXXXXXXXXXXXXXXXXXXXXXXXXXX               X",
"XXXXXXXXXXXXXXXXXXXXXXXXXXXXXXXXXXXXXXXXXXXXXXXXXXXXXXXXXXXXXXXX",
"XXXXXXXXXXXXXXXXXXXXXXXXXXXXXXXXXXXXXXXXXXXXXXXXXXXXXXXXXXXXXXXX",
"XXXXXXXXXXXXXXXXXXXXXXXXXXXXXXXXXXXXXXXXXXXXXXXXXXXXXXXXXXXXXXXX",
"XXXXXXXXXXXXXXXXXXXXXXXXXXXXXXXXXXXXXXXXXXXXXXXXXXXXXXXXXXXXXXXX",
"XXXXXXXXXXXXXXXXXXXXXXXXXXXXXXXXXXXXXXXXXXXXXXXXXXXXXXXXXXXXXXXX",
"XXXXXXXXXXXXXXXXXXXXXXXXXXXXXXXXXXXXXXXXXXXXXXXXXXXXXXXXXXXXXXXX",
"XXXXXXXXXXXXXXXXXXXXXXXXXXXXXXXXXXXXXXXXXXXXXXXXXXXXXXXXXXXXXXXX",
"XXXXXXXXXXXXXXXXXXXXXXXXXXXXXXXXXXXXXXXXXXXXXXXXXXXXXXXXXXXXXXXX",
"XXXXXXXXXXXXXXXXXXXXXXXXXXXXXXXXXXXXXXXXXXXXXXXXXXXXXXXXXXXXXXXX"
};
