/* XPM */
static char *_5155dc452d645c6e27c439af6dbd5c1yFwSsEbIJjwp4wWt[] = {
/* columns rows colors chars-per-pixel */
"64 64 8 1 ",
"  c black",
". c #FF9500",
"X c #FFC20E",
"o c #FDEF00",
"O c #FFF200",
"+ c #FFF400",
"@ c #FFF700",
"# c white",
/* pixels */
"################################################################",
"################################################################",
"################################################################",
"################################################################",
"################################################################",
"################################################################",
"################################################################",
"############################         ###########################",
"########################    XXXXXXXXX    #######################",
"######################  XXXXXXXXXXXXX....  #####################",
"####################  XXXXXXOOOOOOOOOO.....  ###################",
"##################  XXXXOOOOOOOOOOOOOOOOO....  #################",
"################# XXXXOOOOOOO++OOOOOOOOOOOO.... ################",
"################ XXXOOOOOOO++OOOOOOOOOOOOOOOO... ###############",
"############### XXXOOOOOO++++++O+++OOOOOOOOOO.... ##############",
"############## XXXOOOOOOO++OO+++OO+++OOOOOOOOO.... #############",
"############# XXXOOOOOO+O+OOOOOO+O++OOOOOOOOOOO.... ############",
"############ XXXOOOOO+++OOOOOOOOOOOO++++OOOOOOOOO... ###########",
"########### XXXOOOO++OOOOOOOOOOOOOOOO+OOOOOOOOOOOO... ##########",
"########### XXOOOOOO+OOOOOOOOOOOOOOOO+OOO+OOOOOOOO... ##########",
"########## XXOOOOOOO+O+OOOOOOOOOOOOOOOOOOOOOOOOOOOOO.. #########",
"########## XXOOOOOO++OO+OOOOOOOOOOOOOOOO+OOOOOOOOOOO.. #########",
"######### XXOOOOOOOO+O+OOOOOOOOOOOOOOOOO+OOOOOOOOOOOO.. ########",
"######### XXOOOOOO+++OOOOOOOOOOOOOOOOOO+O+OOOOOOOOOOO.. ########",
"######## XXOOOOOOO+++OOOOOOOOOOOOOOOOOOOO+OOOOOOOOOOOO.. #######",
"######## XXOOOOOO+OO++OOOOOOOOOOOOOOOOOO+OOOOOOOOOOOOO.. #######",
"######## XXOOOOOOOOOOOOOOOOOOOOOOOOOOOOOOOOOOOOOOOOOOO.. #######",
"######## XXOOOOOOO+OOOOOOOOOOOOOOOOOOOOOOOOOOOOOOOOOOO.. #######",
"####### XXOOOOOOOOOOOOOOOOOOOOOOOOOOOOOOOOOOOOOOOOOOOOO.. ######",
"####### XXOOOOOOOOOOOOOOOOOOOOOOOOOOOOOOOOOOOOOOOOOOOOO.. ######",
"####### XXOOOOOOOOOOOOOOOOOOOOOOOOOOOO++OOOOOOOOOOOOOOO.. ######",
"####### XXOOOOOOOOOOOOOOOOOOOOOOOOOOOO+OOOOOOOOOOOOOOOO.. ######",
"####### XXOOOOOOOOOOOOOOOOOOOOOOOOOOOOoO+++OOOOOOOOOOOO.. ######",
"####### XXOOOOOOOOOOOOOOOOOOOOOOOOOOOO+OOOOOOOOOOOOOOOO.. ######",
"####### XXOOOOOOOOOOO+OOOOOOOOOOOOOOOOOOOO++OOOOOOOOOOO.. ######",
"####### XXOOOOOOOOOOO+OOOOOOOOOOOOOOOOOOOOOOOOOOOOOOOOO.. ######",
"####### XXOOOOOOOOoOOOO+OOOOOOOOOOOOOOOOOOOOOOOOOOOOOO... ######",
"######## XXOOOOOOOOOOOOOOOOOOOOOOOOOOOOOOOOOOOOOOOOOOO.. #######",
"######## XXOOOOOOOOOOOOOOO+OOOOOOOOOOOOO++OOOOOOOOOOOO.. #######",
"######## XXOOOOOOOOOOOO+OOOOOOOOOOOOOOO+OOOOOOOOOOOOOO.. #######",
"######## XXOOOOOOoOoOOOOOOOOOOOOOOOOOOoOOOOOOOOOOOOOOO.. #######",
"######### XXOOOOOOOOOOOooOOOOOO+OOOOOOOOOoOOOOOOOOOOO.. ########",
"######### XXOOOOOOOOO+OOOo+OOOOOOOOOOOOOOOoOOOOOOOOOO.. ########",
"########## XXOOOOOOOOOOOOOOoOO++++OO+OOOOOOOOOOOOOOO.. #########",
"########## XXOOOOOOOOOOOOOOOOOOOOOoOOOOOOOOOOOOOOOOO.. #########",
"########### XXOOOOOOOOOOOOOOOoOOOOOOOOOOOOOOOOOOOOO.. ##########",
"########### XXXOOOOOOOOOOOOOOOOOOOOOOOoOOoOOOOOOOO... ##########",
"############ XXXOOOOOOOOOOOOOOOOOOOOOOOOOOOOOOOOO... ###########",
"############# XXXOOOOOOOOOOOOOOOOOOOOOOOOOOOOOOO... ############",
"############## XXXOOOOOOOOOOOOOOOOOOOOOOOOOOOOO... #############",
"############### XXXOOOOOOOOOOOOOOOOOOOOOOOOOOO... ##############",
"################ XXXOOOOOOOOOOOOOOOOOOOOOOOOO... ###############",
"################# XXXXOOOOOOOOOOOOOOOOOOOOO.... ################",
"##################  XXXXOOOOOOOOOOOOOOOOO....  #################",
"####################  XXXXXXXOOOOOOOO......  ###################",
"######################  XXXXXXXXXXXXX....  #####################",
"########################    XXXXXXXXX    #######################",
"############################         ###########################",
"################################################################",
"################################################################",
"################################################################",
"################################################################",
"################################################################",
"################################################################"
};
