/* XPM */
static char *a6a5b1111e054c5ebe61e0ccd35084b8b8awk70HtX7I0le6[] = {
/* columns rows colors chars-per-pixel */
"64 64 9 1 ",
"  c black",
". c #FF7E00",
"X c #FF9500",
"o c #FFC20E",
"O c #FFF000",
"+ c #FFF200",
"@ c #FFF400",
"# c #FFF700",
"$ c white",
/* pixels */
"$$$$$$$$$$$$$$$$$$$$$$$$$$$$$$$$$$$$$$$$$$$$$$$$$$$$$$$$$$$$$$$$",
"$$$$$$$$$$$$$$$$$$$$$$$$$$$$$$$$$$$$$$$$$$$$$$$$$$$$$$$$$$$$$$$$",
"$$$$$$$$$$$$$$$$$$$$$$$$$$$$$$$$$$$$$$$$$$$$$$$$$$$$$$$$$$$$$$$$",
"$$$$$$$$$$$$$$$$$$$$$$$$$$$$$$$$$$$$$$$$$$$$$$$$$$$$$$$$$$$$$$$$",
"$$$$$$$$$$$$$$$$$$$$$$$$$$$$$$$$$$$$$$$$$$$$$$$$$$$$$$$$$$$$$$$$",
"$$$$$$$$$$$$$$$$$$$$$$$$$$$$$$$$$$$$$$$$$$$$$$$$$$$$$$$$$$$$$$$$",
"$$$$$$$$$$$$$$$$$$$$$$$$$$$$$$$$$$$$$$$$$$$$$$$$$$$$$$$$$$$$$$$$",
"$$$$$$$$$$$$$$$$$$$$$$$$$$$$$       $$$$$$$$$$$$$$$$$$$$$$$$$$$$",
"$$$$$$$$$$$$$$$$$$$$$$$$$$   ooooooo   $$$$$$$$$$$$$$$$$$$$$$$$$",
"$$$$$$$$$$$$$$$$$$$$$$$$ oooooooooooXXX  $$$$$$$$$$$$$$$$$$$$$$$",
"$$$$$$$$$$$$$$$$$$$$$$ oooo+++++++++XXXXX  $$$$$$$$$$$$$$$$$$$$$",
"$$$$$$$$$$$$$$$$$$$$$ ooo+++++++++++XXXXX.. $$$$$$$$$$$$$$$$$$$$",
"$$$$$$$$$$$$$$$$$$$$ oo++++++++++++++++XX... $$$$$$$$$$$$$$$$$$$",
"$$$$$$$$$$$$$$$$$$$ oo+++++++++++++++++XX.... $$$$$$$$$$$$$$$$$$",
"$$$$$$$$$$$$$$$$$$ oo+++++++++++++++++++XX.... $$$$$$$$$$$$$$$$$",
"$$$$$$$$$$$$$$$$$ oo+++++++++++++++++++++XX.... $$$$$$$$$$$$$$$$",
"$$$$$$$$$$$$$$$$$ o++++++++++++++++++@+++XX.... $$$$$$$$$$$$$$$$",
"$$$$$$$$$$$$$$$$ oo++++++++++++++++@@@@++XXXX... $$$$$$$$$$$$$$$",
"$$$$$$$$$$$$$$$ ooo++++++++++++++++@#@+O+@XXX.... $$$$$$$$$$$$$$",
"$$$$$$$$$$$$$$$ o++++++++++++++++@@@+++++++XX.... $$$$$$$$$$$$$$",
"$$$$$$$$$$$$$$ oo+++++++++++++++@@@++++++++XXX.... $$$$$$$$$$$$$",
"$$$$$$$$$$$$$$ oo+++++++++++++++++++++++++++XX.... $$$$$$$$$$$$$",
"$$$$$$$$$$$$$$ o++++++++++++++++++++++++++++XX.... $$$$$$$$$$$$$",
"$$$$$$$$$$$$$ oo++++++++++++++++++++++++++++XXX.... $$$$$$$$$$$$",
"$$$$$$$$$$$$$ o+++++++++++@+++++++++++++++++XXXX... $$$$$$$$$$$$",
"$$$$$$$$$$$$$ o++++++++++@@++++@++++++++++++XXXX... $$$$$$$$$$$$",
"$$$$$$$$$$$$$ o+++++++++++@++++@@+++++@@+O+++XXX... $$$$$$$$$$$$",
"$$$$$$$$$$$$ oo+++++++++++@+++++@@+++@@+O+O++XXXXX.. $$$$$$$$$$$",
"$$$$$$$$$$$$ o++++++++++@@++++++@@@+@++++++++XXXXX.. $$$$$$$$$$$",
"$$$$$$$$$$$$ o+++++++++++@++++@++@@++++++++++XXXXX.. $$$$$$$$$$$",
"$$$$$$$$$$$$ o+++++++++++@@++++@++@@+++++++++XXXXX.. $$$$$$$$$$$",
"$$$$$$$$$$$$ o++++++++++++@++++@@++@+++++++++XXXXX.. $$$$$$$$$$$",
"$$$$$$$$$$$$ o++++++++++OO++++++@@@++@+++++++XXXXX.. $$$$$$$$$$$",
"$$$$$$$$$$$$ o+++++++++++++++++++@+@+@@@@++++XXXXX.. $$$$$$$$$$$",
"$$$$$$$$$$$$ o+++++++++++++++++++++@@+@+@@+++XXXXX.. $$$$$$$$$$$",
"$$$$$$$$$$$$ o++++++++++++++++++++@+@@@@+++++XXXXX.. $$$$$$$$$$$",
"$$$$$$$$$$$$ o++++++++++++++++++++O++++++++++XXXX... $$$$$$$$$$$",
"$$$$$$$$$$$$ oo+++++++++++++++++++++++++O+O++XXXX... $$$$$$$$$$$",
"$$$$$$$$$$$$$ o+++++++++++++++++++++++++++++XXXXX.. $$$$$$$$$$$$",
"$$$$$$$$$$$$$ o++++++++++++++++++++++++++++XXXXXX.. $$$$$$$$$$$$",
"$$$$$$$$$$$$$ o++++++++++++++O++++++++++@+@XXXXXX.. $$$$$$$$$$$$",
"$$$$$$$$$$$$$ oo++++++++++++O+++++++++++++XXXXXX... $$$$$$$$$$$$",
"$$$$$$$$$$$$$$ o++++++++++++++++++O+++O+++XXXXXX.. $$$$$$$$$$$$$",
"$$$$$$$$$$$$$$ o+++++++++++++++++++++++++XXXXXXX.. $$$$$$$$$$$$$",
"$$$$$$$$$$$$$$ oo+++++++++++++++++++++++XXXXXXXX.. $$$$$$$$$$$$$",
"$$$$$$$$$$$$$$$ o++++++++++++++++++++++XXXXXXXX.. $$$$$$$$$$$$$$",
"$$$$$$$$$$$$$$$ oo++++++++++++++++++++XXXXXXXX... $$$$$$$$$$$$$$",
"$$$$$$$$$$$$$$$$ oo++++++++++++++++++XXXXXXXXX.. $$$$$$$$$$$$$$$",
"$$$$$$$$$$$$$$$$$ o++++++++++++++++++XXXXXXXX.. $$$$$$$$$$$$$$$$",
"$$$$$$$$$$$$$$$$$ oo+++++++++++++++XXXXXXXXX... $$$$$$$$$$$$$$$$",
"$$$$$$$$$$$$$$$$$$ oo+++++++++++++XXXXXXXXX... $$$$$$$$$$$$$$$$$",
"$$$$$$$$$$$$$$$$$$$ oo+++++++++++XXXXXXXXX... $$$$$$$$$$$$$$$$$$",
"$$$$$$$$$$$$$$$$$$$$ oo+++++++++XXXXXXXXX... $$$$$$$$$$$$$$$$$$$",
"$$$$$$$$$$$$$$$$$$$$$ ooo+++++XXXXXXXXX.... $$$$$$$$$$$$$$$$$$$$",
"$$$$$$$$$$$$$$$$$$$$$$  ooo+XXXXXXXXX....  $$$$$$$$$$$$$$$$$$$$$",
"$$$$$$$$$$$$$$$$$$$$$$$$  oooXXXXXX....  $$$$$$$$$$$$$$$$$$$$$$$",
"$$$$$$$$$$$$$$$$$$$$$$$$$$   XXX....   $$$$$$$$$$$$$$$$$$$$$$$$$",
"$$$$$$$$$$$$$$$$$$$$$$$$$$$$$       $$$$$$$$$$$$$$$$$$$$$$$$$$$$",
"$$$$$$$$$$$$$$$$$$$$$$$$$$$$$$$$$$$$$$$$$$$$$$$$$$$$$$$$$$$$$$$$",
"$$$$$$$$$$$$$$$$$$$$$$$$$$$$$$$$$$$$$$$$$$$$$$$$$$$$$$$$$$$$$$$$",
"$$$$$$$$$$$$$$$$$$$$$$$$$$$$$$$$$$$$$$$$$$$$$$$$$$$$$$$$$$$$$$$$",
"$$$$$$$$$$$$$$$$$$$$$$$$$$$$$$$$$$$$$$$$$$$$$$$$$$$$$$$$$$$$$$$$",
"$$$$$$$$$$$$$$$$$$$$$$$$$$$$$$$$$$$$$$$$$$$$$$$$$$$$$$$$$$$$$$$$",
"$$$$$$$$$$$$$$$$$$$$$$$$$$$$$$$$$$$$$$$$$$$$$$$$$$$$$$$$$$$$$$$$"
};
