/* XPM */
static char *_f081ee0e9e54eb6ef8e2c5ae8522b187a4THyDHfcNz1uuW[] = {
/* columns rows colors chars-per-pixel */
"64 64 7 1 ",
"  c black",
". c #FF9500",
"X c #FFC20E",
"o c #FFF000",
"O c #FFF200",
"+ c #FFF400",
"@ c white",
/* pixels */
"@@@@@@@@@@@@@@@@@@@@@@@@@@@@@@@@@@@@@@@@@@@@@@@@@@@@@@@@@@@@@@@@",
"@@@@@@@@@@@@@@@@@@@@@@@@@@@@@@@@@@@@@@@@@@@@@@@@@@@@@@@@@@@@@@@@",
"@@@@@@@@@@@@@@@@@@@@@@@@@@@@@@@@@@@@@@@@@@@@@@@@@@@@@@@@@@@@@@@@",
"@@@@@@@@@@@@@@@@@@@@@@@@@@@@@@@@@@@@@@@@@@@@@@@@@@@@@@@@@@@@@@@@",
"@@@@@@@@@@@@@@@@@@@@@@@@@@@@@@@@@@@@@@@@@@@@@@@@@@@@@@@@@@@@@@@@",
"@@@@@@@@@@@@@@@@@@@@@@@@@@@@@@@@@@@@@@@@@@@@@@@@@@@@@@@@@@@@@@@@",
"@@@@@@@@@@@@@@@@@@@@@@@@@@@@@@@@@@@@@@@@@@@@@@@@@@@@@@@@@@@@@@@@",
"@@@@@@@@@@@@@@@@@@@@@@@@@@@@@@     @@@@@@@@@@@@@@@@@@@@@@@@@@@@@",
"@@@@@@@@@@@@@@@@@@@@@@@@@@@@  XXXXX  @@@@@@@@@@@@@@@@@@@@@@@@@@@",
"@@@@@@@@@@@@@@@@@@@@@@@@@@  XXXX.....  @@@@@@@@@@@@@@@@@@@@@@@@@",
"@@@@@@@@@@@@@@@@@@@@@@@@@ XXXXXX....... @@@@@@@@@@@@@@@@@@@@@@@@",
"@@@@@@@@@@@@@@@@@@@@@@@@ XXXXXXX........ @@@@@@@@@@@@@@@@@@@@@@@",
"@@@@@@@@@@@@@@@@@@@@@@@@ XXXXXXX........ @@@@@@@@@@@@@@@@@@@@@@@",
"@@@@@@@@@@@@@@@@@@@@@@@ XXXXXXX.......... @@@@@@@@@@@@@@@@@@@@@@",
"@@@@@@@@@@@@@@@@@@@@@@ XXXXXXOO........... @@@@@@@@@@@@@@@@@@@@@",
"@@@@@@@@@@@@@@@@@@@@@@ XXXOOOOOOO......... @@@@@@@@@@@@@@@@@@@@@",
"@@@@@@@@@@@@@@@@@@@@@ XXOOOOOOOOOO......... @@@@@@@@@@@@@@@@@@@@",
"@@@@@@@@@@@@@@@@@@@@@ XOOOOOOOOOOOO........ @@@@@@@@@@@@@@@@@@@@",
"@@@@@@@@@@@@@@@@@@@@ XXOOOOOOOOOOOOO........ @@@@@@@@@@@@@@@@@@@",
"@@@@@@@@@@@@@@@@@@@@ XOOOOOOOOOOOOOO........ @@@@@@@@@@@@@@@@@@@",
"@@@@@@@@@@@@@@@@@@@@ XOOOOOOOOOOOOOOO....... @@@@@@@@@@@@@@@@@@@",
"@@@@@@@@@@@@@@@@@@@ XXOOOOOOOOOOOOOOO........ @@@@@@@@@@@@@@@@@@",
"@@@@@@@@@@@@@@@@@@@ XOOOOOOOOOOOOOOOOO....... @@@@@@@@@@@@@@@@@@",
"@@@@@@@@@@@@@@@@@@@ XOOOOOOOOOOOOOOOOO....... @@@@@@@@@@@@@@@@@@",
"@@@@@@@@@@@@@@@@@@@ XOOOOOOOOOOOOOOOOO....... @@@@@@@@@@@@@@@@@@",
"@@@@@@@@@@@@@@@@@@@ XOOOOOOOOOO+OOOOOOO...... @@@@@@@@@@@@@@@@@@",
"@@@@@@@@@@@@@@@@@@ XXOOOOOOOOOOO+OOOOOO....... @@@@@@@@@@@@@@@@@",
"@@@@@@@@@@@@@@@@@@ XOOOOOOOOOOOO+OOOOOO....... @@@@@@@@@@@@@@@@@",
"@@@@@@@@@@@@@@@@@@ XOOOOOOOOOOOO+OOOOOO....... @@@@@@@@@@@@@@@@@",
"@@@@@@@@@@@@@@@@@@ XOOOOOOOOOOO++OOOOOO....... @@@@@@@@@@@@@@@@@",
"@@@@@@@@@@@@@@@@@@ XOOOOOOOOOOOO+O+OOOO....... @@@@@@@@@@@@@@@@@",
"@@@@@@@@@@@@@@@@@@ XOOOOOOOOOOOO+OOOOOO....... @@@@@@@@@@@@@@@@@",
"@@@@@@@@@@@@@@@@@@ XOOOOOOOOOOOO+OOOOOO....... @@@@@@@@@@@@@@@@@",
"@@@@@@@@@@@@@@@@@@ XOOOOOOOOOOoO++OOOOO....... @@@@@@@@@@@@@@@@@",
"@@@@@@@@@@@@@@@@@@ XOOOOOOOOOOoO+++OOOO....... @@@@@@@@@@@@@@@@@",
"@@@@@@@@@@@@@@@@@@ XOOOOOOOOOOOO+++OOOO....... @@@@@@@@@@@@@@@@@",
"@@@@@@@@@@@@@@@@@@ XOOOOOOOOOOOO+OOOOOO....... @@@@@@@@@@@@@@@@@",
"@@@@@@@@@@@@@@@@@@ XOOOOOOOOOOOOOOOOOOO....... @@@@@@@@@@@@@@@@@",
"@@@@@@@@@@@@@@@@@@ XXOOOOOOOOOOOOOOOOOO....... @@@@@@@@@@@@@@@@@",
"@@@@@@@@@@@@@@@@@@@ XOOOOOOOOOOOOOOOOOO...... @@@@@@@@@@@@@@@@@@",
"@@@@@@@@@@@@@@@@@@@ XOOOOOOOOOOOOOOOOOO...... @@@@@@@@@@@@@@@@@@",
"@@@@@@@@@@@@@@@@@@@ XOOOOOOOOOOOOOOOOO....... @@@@@@@@@@@@@@@@@@",
"@@@@@@@@@@@@@@@@@@@ XOOOOOOOOOOOOOOOOO....... @@@@@@@@@@@@@@@@@@",
"@@@@@@@@@@@@@@@@@@@ XOOOOOOOOOOOOOOOOO....... @@@@@@@@@@@@@@@@@@",
"@@@@@@@@@@@@@@@@@@@@ XOOOOOOOOOOOOOOO....... @@@@@@@@@@@@@@@@@@@",
"@@@@@@@@@@@@@@@@@@@@ XOOOOOOOOOOOOOO........ @@@@@@@@@@@@@@@@@@@",
"@@@@@@@@@@@@@@@@@@@@ XXOOOOOOOOOOOO......... @@@@@@@@@@@@@@@@@@@",
"@@@@@@@@@@@@@@@@@@@@@ XXOOOOOOOOOOO........ @@@@@@@@@@@@@@@@@@@@",
"@@@@@@@@@@@@@@@@@@@@@ XXOOOOOOOOOO......... @@@@@@@@@@@@@@@@@@@@",
"@@@@@@@@@@@@@@@@@@@@@@ XOOOOOOOO.......... @@@@@@@@@@@@@@@@@@@@@",
"@@@@@@@@@@@@@@@@@@@@@@ XXOOOOOO........... @@@@@@@@@@@@@@@@@@@@@",
"@@@@@@@@@@@@@@@@@@@@@@@ XXOOOOO.......... @@@@@@@@@@@@@@@@@@@@@@",
"@@@@@@@@@@@@@@@@@@@@@@@@ XXOOO.......... @@@@@@@@@@@@@@@@@@@@@@@",
"@@@@@@@@@@@@@@@@@@@@@@@@ XXXOO.......... @@@@@@@@@@@@@@@@@@@@@@@",
"@@@@@@@@@@@@@@@@@@@@@@@@@ XXXX......... @@@@@@@@@@@@@@@@@@@@@@@@",
"@@@@@@@@@@@@@@@@@@@@@@@@@@  XX.......  @@@@@@@@@@@@@@@@@@@@@@@@@",
"@@@@@@@@@@@@@@@@@@@@@@@@@@@@  .....  @@@@@@@@@@@@@@@@@@@@@@@@@@@",
"@@@@@@@@@@@@@@@@@@@@@@@@@@@@@@     @@@@@@@@@@@@@@@@@@@@@@@@@@@@@",
"@@@@@@@@@@@@@@@@@@@@@@@@@@@@@@@@@@@@@@@@@@@@@@@@@@@@@@@@@@@@@@@@",
"@@@@@@@@@@@@@@@@@@@@@@@@@@@@@@@@@@@@@@@@@@@@@@@@@@@@@@@@@@@@@@@@",
"@@@@@@@@@@@@@@@@@@@@@@@@@@@@@@@@@@@@@@@@@@@@@@@@@@@@@@@@@@@@@@@@",
"@@@@@@@@@@@@@@@@@@@@@@@@@@@@@@@@@@@@@@@@@@@@@@@@@@@@@@@@@@@@@@@@",
"@@@@@@@@@@@@@@@@@@@@@@@@@@@@@@@@@@@@@@@@@@@@@@@@@@@@@@@@@@@@@@@@",
"@@@@@@@@@@@@@@@@@@@@@@@@@@@@@@@@@@@@@@@@@@@@@@@@@@@@@@@@@@@@@@@@"
};
