/* XPM */
static char *dc756bd02e044d60cdb8380f4fb25a4fa4ILdmv0woCXeDFp[] = {
/* columns rows colors chars-per-pixel */
"64 64 7 1 ",
"  c black",
". c #FF9500",
"X c #FFC20E",
"o c #FFF100",
"O c #FFF200",
"+ c #FFF400",
"@ c white",
/* pixels */
"@@@@@@@@@@@@@@@@@@@@@@@@@@@@@@@@@@@@@@@@@@@@@@@@@@@@@@@@@@@@@@@@",
"@@@@@@@@@@@@@@@@@@@@@@@@@@@@@@@@@@@@@@@@@@@@@@@@@@@@@@@@@@@@@@@@",
"@@@@@@@@@@@@@@@@@@@@@@@@@@@@@@@@@@@@@@@@@@@@@@@@@@@@@@@@@@@@@@@@",
"@@@@@@@@@@@@@@@@@@@@@@@@@@@@@@@@@@@@@@@@@@@@@@@@@@@@@@@@@@@@@@@@",
"@@@@@@@@@@@@@@@@@@@@@@@@@@@@@@@@@@@@@@@@@@@@@@@@@@@@@@@@@@@@@@@@",
"@@@@@@@@@@@@@@@@@@@@@@@@@@@@@@@@@@@@@@@@@@@@@@@@@@@@@@@@@@@@@@@@",
"@@@@@@@@@@@@@@@@@@@@@@@@@@@@@@@@@@@@@@@@@@@@@@@@@@@@@@@@@@@@@@@@",
"@@@@@@@@@@@@@@@@@@@@@@@@@@@@@     @@@@@@@@@@@@@@@@@@@@@@@@@@@@@@",
"@@@@@@@@@@@@@@@@@@@@@@@@@@@  XXXXX  @@@@@@@@@@@@@@@@@@@@@@@@@@@@",
"@@@@@@@@@@@@@@@@@@@@@@@@@  .....XXXX  @@@@@@@@@@@@@@@@@@@@@@@@@@",
"@@@@@@@@@@@@@@@@@@@@@@@@ .......XXXXXX @@@@@@@@@@@@@@@@@@@@@@@@@",
"@@@@@@@@@@@@@@@@@@@@@@@ ........XXXXXXX @@@@@@@@@@@@@@@@@@@@@@@@",
"@@@@@@@@@@@@@@@@@@@@@@@ ........XXXXXXX @@@@@@@@@@@@@@@@@@@@@@@@",
"@@@@@@@@@@@@@@@@@@@@@@ ..........XXXXXXX @@@@@@@@@@@@@@@@@@@@@@@",
"@@@@@@@@@@@@@@@@@@@@@ ...........OOXXXXXX @@@@@@@@@@@@@@@@@@@@@@",
"@@@@@@@@@@@@@@@@@@@@@ .........OOOOOOOXXX @@@@@@@@@@@@@@@@@@@@@@",
"@@@@@@@@@@@@@@@@@@@@ .........OOOOOOOOOOXX @@@@@@@@@@@@@@@@@@@@@",
"@@@@@@@@@@@@@@@@@@@@ ........OOOOOOOOOOOOX @@@@@@@@@@@@@@@@@@@@@",
"@@@@@@@@@@@@@@@@@@@ ........OOOOOOOOOOOOOXX @@@@@@@@@@@@@@@@@@@@",
"@@@@@@@@@@@@@@@@@@@ ........OOOOOOOOOOOOOOX @@@@@@@@@@@@@@@@@@@@",
"@@@@@@@@@@@@@@@@@@@ .......OOOOOOOOOOOOOOOX @@@@@@@@@@@@@@@@@@@@",
"@@@@@@@@@@@@@@@@@@ ........OOOOOOOOOOOOOOOXX @@@@@@@@@@@@@@@@@@@",
"@@@@@@@@@@@@@@@@@@ .......OOOOOOOOOOOOOOOOOX @@@@@@@@@@@@@@@@@@@",
"@@@@@@@@@@@@@@@@@@ .......OOOOOOOOOOOOOOOOOX @@@@@@@@@@@@@@@@@@@",
"@@@@@@@@@@@@@@@@@@ .......OOOOOOOOOOOOOOOOOX @@@@@@@@@@@@@@@@@@@",
"@@@@@@@@@@@@@@@@@@ ......OOOOOO+OOOOOOOOOOOX @@@@@@@@@@@@@@@@@@@",
"@@@@@@@@@@@@@@@@@ .......OOOOOO+OOOOOOOOOOOXX @@@@@@@@@@@@@@@@@@",
"@@@@@@@@@@@@@@@@@ .......OOOOOO+OOOOOOOOOOOOX @@@@@@@@@@@@@@@@@@",
"@@@@@@@@@@@@@@@@@ .......OOOOOO+OOOOOOOOOOOOX @@@@@@@@@@@@@@@@@@",
"@@@@@@@@@@@@@@@@@ .......OOOOOO+OOOOOOOOOOOOX @@@@@@@@@@@@@@@@@@",
"@@@@@@@@@@@@@@@@@ .......OOOO+O++OOOOOOOOOOOX @@@@@@@@@@@@@@@@@@",
"@@@@@@@@@@@@@@@@@ .......OOOOOO+OOOOOOOOOOOOX @@@@@@@@@@@@@@@@@@",
"@@@@@@@@@@@@@@@@@ .......OOOOOO+OOOOOOOOOOOOX @@@@@@@@@@@@@@@@@@",
"@@@@@@@@@@@@@@@@@ .......OOOOO++OOOOOOOOOOOOX @@@@@@@@@@@@@@@@@@",
"@@@@@@@@@@@@@@@@@ .......OOOO++++OOOOOOOOOOOX @@@@@@@@@@@@@@@@@@",
"@@@@@@@@@@@@@@@@@ .......OOOO+++OOOOOOOOOOOOX @@@@@@@@@@@@@@@@@@",
"@@@@@@@@@@@@@@@@@ .......OOOOOOOOOOOOOOOOOOOX @@@@@@@@@@@@@@@@@@",
"@@@@@@@@@@@@@@@@@ .......OOOOOOOOOOOOOOOOOOOX @@@@@@@@@@@@@@@@@@",
"@@@@@@@@@@@@@@@@@ .......OOOOOOOOOOOOOOOOOOXX @@@@@@@@@@@@@@@@@@",
"@@@@@@@@@@@@@@@@@@ ......OOOOOOOOOOOOOOOOOOX @@@@@@@@@@@@@@@@@@@",
"@@@@@@@@@@@@@@@@@@ ......OOOOOOOOoOOOOOOOOOX @@@@@@@@@@@@@@@@@@@",
"@@@@@@@@@@@@@@@@@@ .......OOOOOOOOOOOOOOOOOX @@@@@@@@@@@@@@@@@@@",
"@@@@@@@@@@@@@@@@@@ .......OOOOOOOOOOOOOOOOOX @@@@@@@@@@@@@@@@@@@",
"@@@@@@@@@@@@@@@@@@ .......OOOOOOOOOOOOOOOOOX @@@@@@@@@@@@@@@@@@@",
"@@@@@@@@@@@@@@@@@@@ .......OOOOOOOOOOOOOOOX @@@@@@@@@@@@@@@@@@@@",
"@@@@@@@@@@@@@@@@@@@ ........OOOOOOOOOOOOOOX @@@@@@@@@@@@@@@@@@@@",
"@@@@@@@@@@@@@@@@@@@ .........OOOOOOOOOOOOXX @@@@@@@@@@@@@@@@@@@@",
"@@@@@@@@@@@@@@@@@@@@ ........OOOOOOOOOOOXX @@@@@@@@@@@@@@@@@@@@@",
"@@@@@@@@@@@@@@@@@@@@ .........OOOOOOOOOOXX @@@@@@@@@@@@@@@@@@@@@",
"@@@@@@@@@@@@@@@@@@@@@ ..........OOOOOOOOX @@@@@@@@@@@@@@@@@@@@@@",
"@@@@@@@@@@@@@@@@@@@@@ ...........OOOOOOXX @@@@@@@@@@@@@@@@@@@@@@",
"@@@@@@@@@@@@@@@@@@@@@@ ..........OOOOOXX @@@@@@@@@@@@@@@@@@@@@@@",
"@@@@@@@@@@@@@@@@@@@@@@@ ..........OOOXX @@@@@@@@@@@@@@@@@@@@@@@@",
"@@@@@@@@@@@@@@@@@@@@@@@ ..........OOXXX @@@@@@@@@@@@@@@@@@@@@@@@",
"@@@@@@@@@@@@@@@@@@@@@@@@ .........XXXX @@@@@@@@@@@@@@@@@@@@@@@@@",
"@@@@@@@@@@@@@@@@@@@@@@@@@  .......XX  @@@@@@@@@@@@@@@@@@@@@@@@@@",
"@@@@@@@@@@@@@@@@@@@@@@@@@@@  .....  @@@@@@@@@@@@@@@@@@@@@@@@@@@@",
"@@@@@@@@@@@@@@@@@@@@@@@@@@@@@     @@@@@@@@@@@@@@@@@@@@@@@@@@@@@@",
"@@@@@@@@@@@@@@@@@@@@@@@@@@@@@@@@@@@@@@@@@@@@@@@@@@@@@@@@@@@@@@@@",
"@@@@@@@@@@@@@@@@@@@@@@@@@@@@@@@@@@@@@@@@@@@@@@@@@@@@@@@@@@@@@@@@",
"@@@@@@@@@@@@@@@@@@@@@@@@@@@@@@@@@@@@@@@@@@@@@@@@@@@@@@@@@@@@@@@@",
"@@@@@@@@@@@@@@@@@@@@@@@@@@@@@@@@@@@@@@@@@@@@@@@@@@@@@@@@@@@@@@@@",
"@@@@@@@@@@@@@@@@@@@@@@@@@@@@@@@@@@@@@@@@@@@@@@@@@@@@@@@@@@@@@@@@",
"@@@@@@@@@@@@@@@@@@@@@@@@@@@@@@@@@@@@@@@@@@@@@@@@@@@@@@@@@@@@@@@@"
};
