/* XPM */
static char *cfb4e5c2187d4b16e46844a075f648e1O6oxMgiawaZLgQCi[] = {
/* columns rows colors chars-per-pixel */
"64 64 8 1 ",
"  c black",
". c #FF7E00",
"X c #FF9500",
"o c #FFC20E",
"O c #FFF100",
"+ c #FFF300",
"@ c #FFF500",
"# c white",
/* pixels */
"################################################################",
"################################################################",
"################################################################",
"################################################################",
"################################################################",
"################################################################",
"################################################################",
"############################       #############################",
"#########################   ooooooo   ##########################",
"#######################  XXXooooooooooo ########################",
"#####################  XXXXXO+O+++++Ooooo ######################",
"#################### ..XXXXX+O+O+++++O+ooo #####################",
"################### ...XX+++++O++O+O+O+++oo ####################",
"################## ....XX++++++O++++++++++oo ###################",
"################# ....XX+O+++++++++++++++++oo ##################",
"################ ....XX+++O++++++O++++++++++oo #################",
"################ ....XX++++++@++++++O++++++O+o #################",
"############### ...XXXX+++@@@@++OO++OO+++++++oo ################",
"############## ....XXX++++@@@+++O++O+O+OOO+O+ooo ###############",
"############## ....XX+++++@@+++++OO+O+O+O+O++++o ###############",
"############# ....XXX+OO+++@O+O+O+O++O++++O++O+oo ##############",
"############# ....XX++++++++OO+O+O+OO+O++O+OO+Ooo ##############",
"############# ....XXOOO++++O+OO+O+O++O++O+O++O+Oo ##############",
"############ ....XXXOO+O++++O++O+O+O+OOOOO+OO+O+oo #############",
"############ ...XXXXO+++++++O+O+O+O++++++O+O+O+O+o #############",
"############ ...XXXXOO+O+++O+O+OOOO+++O+O+O+O+O++o #############",
"############ ...XXX+OOOO++O+O+O++OO++++O+O+O+O+O+o #############",
"########### ..XXXXXO+OOOOO+O+OOOO++O++O+O+O+O+O++oo ############",
"########### ..XXXXXO+OO++OO+O+O+O++OOO+++O+O+O+O++o ############",
"########### ..XXXXX+O+O+O++O+O++O++++O++O+O+O+O+++o ############",
"########### ..XXXXXO+O+OO+O+O+O++++O+++++O+O+O++++o ############",
"########### ..XXXXX+O+O++O+O+OO++++OO++OO+O+O+++++o ############",
"########### ..XXXXX++O+O++O+O+O+@+++++++++O+O++O+Oo ############",
"########### ..XXXXXOO++++O+O+O+O+@+++++++O+O+OO+O+o ############",
"########### ..XXXXX+++++++O+O+O+++++++++OO+++O+O++o ############",
"########### ..XXXXXO+++++++O+O+O+O+O++++O+O+O+O+++o ############",
"########### ...XXXXOO+OOOO+OO+O++O+O+O+OO+OOO++O++o ############",
"########### ...XXXX++OOOO+O++O+OO+O+O+O++O+O++O++oo ############",
"############ ..XXXXXOO+OO+++O++O+O+O+O+OO+O+O++O+o #############",
"############ ..XXXXXX+OO+O+O++O+O+O+O+O++O+O+OO++o #############",
"############ ..XXXXXX++++++++OOO++O+++O+O++++O+O+o #############",
"############ ...XXXXXXO+OO+OOOOOOOOOOOOOO++OO+O+oo #############",
"############# ..XXXXXXOOOOOOOO+O++++++++++O++O++o ##############",
"############# ..XXXXXXX++++++OO+++O++++O+O+OO+O+o ##############",
"############# ..XXXXXXXX+O+O+O+OO+O+O+O+++O+O++oo ##############",
"############## ..XXXXXXXXOO+O+O++O+O+O+O+O+O+O+o ###############",
"############## ...XXXXXXXX+O+O+OO+O+O+O+O+O+OOoo ###############",
"############### ..XXXXXXXXX+O+O++O+O+O+O+O+O+oo ################",
"################ ..XXXXXXXX++++O+O+O+O+O+++++o #################",
"################ ...XXXXXXXXX+++O+O+O+O+++++oo #################",
"################# ...XXXXXXXXX+++O+O+O+OO++oo ##################",
"################## ...XXXXXXXXX+O+O+O+O++Ooo ###################",
"################### ...XXXXXXXXX+O+O++++Ooo ####################",
"#################### ....XXXXXXXXXO++++ooo #####################",
"#####################  ....XXXXXXXXX+ooo  ######################",
"#######################  ....XXXXXXooo  ########################",
"#########################   ....XXX   ##########################",
"############################       #############################",
"################################################################",
"################################################################",
"################################################################",
"################################################################",
"################################################################",
"################################################################"
};
