/* XPM */
static char *_407880fee8c46f18e90b07337793271Z6Z0YDS9BvxPE4l5[] = {
/* columns rows colors chars-per-pixel */
"64 64 2 1 ",
"  c black",
". c white",
/* pixels */
"................................................................",
"................................................................",
"................................................................",
"................................................................",
"................................................................",
"................................................................",
"................................................................",
"................................................................",
"......................        ..................................",
"..................    ........    ..............................",
"................  ................   ...........................",
"..............  .....................  .........................",
".............  ........................ ........................",
"............  ..........................  ......................",
"...........  ............................. .....................",
"..........  ............................... ....................",
"......... .................................. ...................",
"........ ................................... ...................",
"........ .................................... ..................",
"........ .................................... ..................",
"........ ................................... ...................",
"........ ................................... ...................",
"........ .................................. ....................",
"........ ................................  .....................",
"........ ............................... .......................",
"......... ............................  ........................",
"......... .........................   ..........................",
"......... .........  ..........    .............................",
"......... ...........          .................................",
".......... .............  ......................................",
".......... ............. .......................................",
".......... ............. .......................................",
"........... ............ .......................................",
"........... ............ .......................................",
"........... ............ .......................................",
"........... ............ .......................................",
"........... ............ .......................................",
"........... ............ .......................................",
"........... ............. ......................................",
"............ ............. .....................................",
"............ .............  ....................................",
"............ ..............   ..................................",
"............ ................  ....        .....................",
"............  ............         ........  ...................",
"............. .........    .................. ..................",
"............. ................................ .................",
".............. ............................... .................",
".............. ............................... .................",
"............... .............................  .................",
"............... ............................ ...................",
"................ .......................... ....................",
"................  ........................  ....................",
"................. ......................  ......................",
".................  .................... ........................",
"..................  ..................  ........................",
"...................  ...............  ..........................",
"....................    ........    ............................",
".......................          ...............................",
"................................................................",
"................................................................",
"................................................................",
"................................................................",
"................................................................",
"................................................................"
};
