/* XPM */
static char *_709f8b5f04e4939be65927e07a7d94bcwuCAbjp0J6GzLfN[] = {
/* columns rows colors chars-per-pixel */
"64 64 6 1 ",
"  c black",
". c #00B7EF",
"X c #99D9EA",
"o c #F9F9F9",
"O c gray98",
"+ c white",
/* pixels */
"++++++++++++++++++++++++++++++++++++++++++++++++++++++++++++++++",
"++++++++++++++++++++++++++++++++++++++++++++++++++++++++++++++++",
"++++++++++++++++++++++++++++++++++++++++++++++++++++++++++++++++",
"++++++++++++++++++++++++++++++++++++++++++++++++++++++++++++++++",
"++++++++++++++++++++++++++++++++++++++++++++++++++++++++++++++++",
"++++++++++++++++++++++++++++++++++++++++++++++++++++++++++++++++",
"++++++++++++++++++++++++++++++++++++++++++++++++++++++++++++++++",
"++++++++++++++++++++++++++++++++++++++++++++++++++++++++++++++++",
"+++++++++++++++++++++++++++++++++++       ++++++++++++++++++++++",
"+++++++++++++++++++++++++++++      +++++++    ++++++++++++++++++",
"+++++++++++++++++++++++++++  +++++++++++++++++   +++++++++++++++",
"+++++++++++++++++++++++++  +++++++++++++++++++++  ++++++++++++++",
"++++++++++++++++++++++++ ++++++++++++++++++++++++ ++++++++++++++",
"++++++++++++++++++++++  +++++++++++++++++++++++++ ++++++++++++++",
"+++++++++++++++++++++ +++++++++++++++++++++++++++ ++++++++++++++",
"++++++++++++++++++++ +++++++++++++++++   ++++++++ ++++++++++++++",
"+++++++++++++++++++ ++++++++++++++++  +++++++++++ ++++++++++++++",
"++++++++++++++++++ ++++++++++++++++ +++++++++++++ ++++++++++++++",
"++++++++++++++++++ +++++++++++++++  +++++++++++++ ++++++++++++++",
"+++++++++++++++++ ++++++++++++++  +++++++++++++++ ++++++++++++++",
"+++++++++++++++++ +++++++++++++ +++++++++++++++++ ++++++++++++++",
"+++++++++++++++++ ++++++++++++     ++++++++++++++ ++++++++++++++",
"+++++++++++++++++ +++++++++++ ++ .  +++++++++++++ ++++++++++++++",
"++++++++++++++++ +++++++++++++++ ... ++++++++++++ ++++++++++++++",
"++++++++++++++++ ++++++++++++++ .XXX. +++++++++++ ++++++++++++++",
"++++++++++++++++ ++++++++++++++ .X+X. +++++++++++ ++++++++++++++",
"++++++++++++++++ ++++++++++++++ .XX. ++++++++++++ ++++++++++++++",
"++++++++++++++++ ++++++++++++++ . X. ++++++++++++ ++++++++++++++",
"++++++++++++++++ ++++++++++++++ .+X. ++++++++++++ ++++++++++++++",
"++++++++++++++++ ++++++++++++++ .+. +++++++++++++ ++++++++++++++",
"++++++++++++++++ ++++++++++++++  .. ++++++++++++++ +++++++++++++",
"++++++++++++++++ ++++++++++++++++   ++++++++++++++ +++++++++++++",
"++++++++++++++++ +++++++++++++++++++++++++++++++++ +++++++++++++",
"++++++++++++++++ ++++++ ++++++++++++++++++++++++++ +++++++++++++",
"++++++++++++++++ ++++++ ++++++ +++++++++++++++++++ +++++++++++++",
"++++++++++++++++ ++++++ +++++  +++++++++++++++++++ +++++++++++++",
"+++++++++++++++++ +++++ ++++ +++++++++++++++++++++ +++++++++++++",
"+++++++++++++++++ +++++ ++++ +++++++++++++++++++++ +++++++++++++",
"++++++++++++++++++ ++++  +  ++++++++++++  ++++++++ +++++++++++++",
"+++++++++++++++++++ ++++  ++++++++++++   +++++++++ +++++++++++++",
"++++++++++++++++++++ ++++++++++++++++ ++++++++++++ +++++++++++++",
"+++++++++++++++++++++  +++++++++++   +++++++++++++ +++++++++++++",
"+++++++++++++++++++++++            +++++++++++++++ +++++++++++++",
"++++++++++++++++++++++++++++++++  ++++++++++++++++ +++++++++++++",
"+++++++++++++++++++++++++++++++++ ++++++++++++++++ +++++++++++++",
"+++++++++++++++++++++++++++++++++ ++++++++++++++++ +++++++++++++",
"+++++++++++++++++++++++++++++++++ ++++++++++++++++ +OO++++++++++",
"+++++++++++++++++++++++++++++++++ ++++++++++++++++ O++++++++++++",
"+++++++++++++++++++++++++++++++++ ++++++++++++++++ +++++++++++++",
"+++++++++++++++++++++++++++++++++ ++++++++++++++++ +++++++++++++",
"+++++++++++++++++++++++++++++++++ +++++++++++++++ ++++++++++++++",
"++++++++++++++++++++++++++++++++++ ++++++++++++++ ++++++++++++++",
"++++++++++++++++++++++++++++++++++ ++++++++++++++ ++++++++++++++",
"++++++++++++++++++++++++++++++++++ +++++++++++++ +++++++++++++++",
"++++++++++++++++++++++++++++++++++  ++++++++++  ++++++++++++++++",
"+++++++++++++++++++++++++++++++++++  ++++++++  +++++++++++++++++",
"++++++++++++++++++++++++++++++++++++   +++   +++++++++++++++++++",
"+++++++++++++++++++++++++++++++++++++++    +++++++++++++++++++++",
"++++++++++++++++++++++++++++++++++++++++++++++++++++++++++++++++",
"++++++++++++++++++++++++++++++++++++++++++++++++++++++++++++++++",
"++++++++++++++++++++++++++++++++++++++++++++++++++++++++++++++++",
"++++++++++++++++++++++++++++++++++++++++++++++++++++++++++++++++",
"++++++++++++++++++++++++++++++++++++++++++++++++++++++++++++++++",
"++++++++++++++++++++++++++++++++++++++++++++++++++++++++++++++++"
};
