/* XPM */
static char *_11b4252500d40dcd4bcba9fd1fb4babbIBf2iMEpMStH02n[] = {
/* columns rows colors chars-per-pixel */
"64 64 2 1 ",
"  c black",
". c white",
/* pixels */
"................................................................",
"................................................................",
"................................................................",
"................................................................",
"................................................................",
"................................................................",
"................................................................",
"................................................................",
"................................................................",
"................................................................",
"................................................................",
"..........................            ..........................",
".......................    ..........    .......................",
"....................   ..................  .....................",
"..................  ...................... .....................",
".................  ........................ ....................",
"................. ......................... ....................",
"................ ........................... ...................",
"................ ........................... ...................",
"............... ............................ ...................",
"............... ............................ ...................",
".............. .............................. ..................",
".............  .............................. ..................",
"............. ............................... ..................",
"............. ..........  ................... ..................",
"............. ......... ..................... ..................",
".............  .......  ..................... ..................",
".............. ....... ...................... ..................",
"..............  ..... ....................... ..................",
"............... ..... ....................... ..................",
"...............   .   ....................... ..................",
".................   . ....................... ..................",
".................... ........................ ..................",
".................... ........................ ..................",
".................... ........................ ..................",
".................... ........................ ..................",
".................... ........................ ..................",
".................... ........................ ..................",
".................... ........................ ..................",
".................... ........................ ..................",
".................... ........................ ..................",
".................... ........................ ..................",
".................... ........................ ..................",
".................... .................... ... ..................",
"..................... ................... ... ..................",
"..................... ................... .. ...................",
"..................... .......  .......... .. ...................",
"..................... ........ .......... .. ...................",
"...................... ........ ........  .. ...................",
"...................... .........  .....  ... ...................",
"......................  .........       .... ...................",
"....................... ............  ..... ....................",
"........................ .................. ....................",
"........................  ................. ....................",
".........................   .............. .....................",
"............................ ............  .....................",
".............................    ....... .......................",
".................................       ........................",
"................................................................",
"................................................................",
"................................................................",
"................................................................",
"................................................................",
"................................................................"
};
