/* XPM */
static char *_257a9ee3cc14c169bb3bfb87d72fde6exFZKcRhgZgXKFT7[] = {
/* columns rows colors chars-per-pixel */
"64 64 3 1 ",
"  c black",
". c #9C5A3C",
"X c white",
/* pixels */
"XXXXXXXXXXXXXXXXXXXXXXXXXXXXXXXXXXXXXXXXXXXXXXXXXXXXXXXXXXXXXXXX",
"XXXXXXXXXXXXXXXXXXXXXXXXXXXXXXXXXXXXXXXXXXXXXXXXXXXXXXXXXXXXXXXX",
"XXXXXXXXXXXXXXXXXXXXXXXXXXXXXXXXXXXXXXXXXXXXXXXXXXXXXXXXXXXXXXXX",
"XXXXXXXXXXXXXXXXXXXXXXXXXXXXXXXXXXXXXXXXXXXXXXXXXXXXXXXXXXXXXXXX",
"XXXXXXXXXXXXXXXXXXXXXXXXXXXXXXXXXXXXXXXXXXXXXXXXXXXXXXXXXXXXXXXX",
"XXXXXXXXXXXXXXXXXXXXXXXXXXXXXXXXXXXXXXXXXXXXXXXXXXXXXXXXXXXXXXXX",
"XXXXXXXXXXXXXXXXXXXXXXXXXXXXXXXXXXXXXXXXXXXXXXXXXXXXXXXXXXXXXXXX",
"XXXXXXXXXXXXXXXXXXXXXXXXXXXXXXXXXXXXXXXXXXXXXXXXXXXXXXXXXXXXXXXX",
"XXXXXXXXXXXXXXXXXXXXXXXXXXXXXXXXXXXXXXXXXXXXXXXXXXXXXXXXXXXXXXXX",
"XXXXXXXXXXXXXXXXXXXXXXXXXXXXXXXXXXXXXXXXXXXXXXXXXXXXXXXXXXXXXXXX",
"XXXXXXXXXXXXXXXXXXXXXXXXXXXXXXXXXXXXXXXXXXXXXXXXXXXXXXXXXXXXXXXX",
"XXXXXXXXXXXXXXXXXXXXXXXXXXXXXXXXXXXXXXXXXXXXXXXXXXXXXXXXXXXXXXXX",
"XXXXXXXXXXXXX      XXXXXXXXXXXXXXXXXXXX        XXXXXXXXXXXXXXXXX",
"XXXXXXXXXXXXX ....  XXXXXXXXXXXXXXXX   .......   XXXXXXXXXXXXXXX",
"XXXXXXXXXXXX ......  XXXXXXXXXXXXX  ............ XXXXXXXXXXXXXXX",
"XXXXXXXXXXXX ....... XXXXXXXXXXX  ............... XXXXXXXXXXXXXX",
"XXXXXXXXXXX ........ XXXXXXXXXX  ................  XXXXXXXXXXXXX",
"XXXXXXXXXXX ......... XXXXXXXX ................... XXXXXXXXXXXXX",
"XXXXXXXXXXX ......... XXXXXX  .................... XXXXXXXXXXXXX",
"XXXXXXXXXXX ......... XXXXX  ...................... XXXXXXXXXXXX",
"XXXXXXXXXXX ......... XXX  ........................ XXXXXXXXXXXX",
"XXXXXXXXXXX ......... XX  ......................... XXXXXXXXXXXX",
"XXXXXXXXXXX ......... X  ........... .............. XXXXXXXXXXXX",
"XXXXXXXXXXX .........   ...........  ............... XXXXXXXXXXX",
"XXXXXXXXXXX ..........  ........... ................ XXXXXXXXXXX",
"XXXXXXXXXXX ..........  ..........  ................ XXXXXXXXXXX",
"XXXXXXXXXXX ......................  ................ XXXXXXXXXXX",
"XXXXXXXXXXX ..................... X ................ XXXXXXXXXXX",
"XXXXXXXXXXX ....  ........  ..... X ................ XXXXXXXXXXX",
"XXXXXXXXXX ......  ......  ...... X ................ XXXXXXXXXXX",
"XXXXXXXXXX .......  ....  ....... X ................ XXXXXXXXXXX",
"XXXXXXXXXX ........ ...  .......  X ................ XXXXXXXXXXX",
"XXXXXXXXXX ..................... XX  ............... XXXXXXXXXXX",
"XXXXXXXXXX ...... ........ ..... XXX ............... XXXXXXXXXXX",
"XXXXXXXXXX ..................... XXX ............... XXXXXXXXXXX",
"XXXXXXXXXX ..........   ........ XXX ............... XXXXXXXXXXX",
"XXXXXXXXXXX .......  .. ........ XXX ................ XXXXXXXXXX",
"XXXXXXXXXXX ....... ...  ......  XXX ................ XXXXXXXXXX",
"XXXXXXXXXXX ....... .... ...... XXXX ................ XXXXXXXXXX",
"XXXXXXXXXXX ....... ....  ..... XXXXX ............... XXXXXXXXXX",
"XXXXXXXXXXX ................... XXXXX ............... XXXXXXXXXX",
"XXXXXXXXXXX ................... XXXXX ............... XXXXXXXXXX",
"XXXXXXXXXXXX ................. XXXXXX ............... XXXXXXXXXX",
"XXXXXXXXXXXX ................. XXXXXXX .............. XXXXXXXXXX",
"XXXXXXXXXXXXX ................ XXXXXXX  ............. XXXXXXXXXX",
"XXXXXXXXXXXXXX .............. XXXXXXXXX ............. XXXXXXXXXX",
"XXXXXXXXXXXXXX .............. XXXXXXXXX  ............ XXXXXXXXXX",
"XXXXXXXXXXXXXXX ............  XXXXXXXXXX  ........... XXXXXXXXXX",
"XXXXXXXXXXXXXXXX ........... XXXXXXXXXXXX ........... XXXXXXXXXX",
"XXXXXXXXXXXXXXXX  .........  XXXXXXXXXXXXX ......... XXXXXXXXXXX",
"XXXXXXXXXXXXXXXXX ......... XXXXXXXXXXXXXXX ........ XXXXXXXXXXX",
"XXXXXXXXXXXXXXXXXX  .....  XXXXXXXXXXXXXXXXX ....... XXXXXXXXXXX",
"XXXXXXXXXXXXXXXXXXX       XXXXXXXXXXXXXXXXXXX ..... XXXXXXXXXXXX",
"XXXXXXXXXXXXXXXXXXXXXXXXXXXXXXXXXXXXXXXXXXXXXX ...  XXXXXXXXXXXX",
"XXXXXXXXXXXXXXXXXXXXXXXXXXXXXXXXXXXXXXXXXXXXXXX   XXXXXXXXXXXXXX",
"XXXXXXXXXXXXXXXXXXXXXXXXXXXXXXXXXXXXXXXXXXXXXXXXXXXXXXXXXXXXXXXX",
"XXXXXXXXXXXXXXXXXXXXXXXXXXXXXXXXXXXXXXXXXXXXXXXXXXXXXXXXXXXXXXXX",
"XXXXXXXXXXXXXXXXXXXXXXXXXXXXXXXXXXXXXXXXXXXXXXXXXXXXXXXXXXXXXXXX",
"XXXXXXXXXXXXXXXXXXXXXXXXXXXXXXXXXXXXXXXXXXXXXXXXXXXXXXXXXXXXXXXX",
"XXXXXXXXXXXXXXXXXXXXXXXXXXXXXXXXXXXXXXXXXXXXXXXXXXXXXXXXXXXXXXXX",
"XXXXXXXXXXXXXXXXXXXXXXXXXXXXXXXXXXXXXXXXXXXXXXXXXXXXXXXXXXXXXXXX",
"XXXXXXXXXXXXXXXXXXXXXXXXXXXXXXXXXXXXXXXXXXXXXXXXXXXXXXXXXXXXXXXX",
"XXXXXXXXXXXXXXXXXXXXXXXXXXXXXXXXXXXXXXXXXXXXXXXXXXXXXXXXXXXXXXXX",
"XXXXXXXXXXXXXXXXXXXXXXXXXXXXXXXXXXXXXXXXXXXXXXXXXXXXXXXXXXXXXXXX"
};
