/* XPM */
static char *d0cb64ab35e6471be952878aa5390db5EBA1g8Vp4trAMPbI[] = {
/* columns rows colors chars-per-pixel */
"64 64 3 1 ",
"  c black",
". c #9C5A3C",
"X c white",
/* pixels */
"XXXXXXXXXXXXXXXXXXXXXXXXXXXXXXXXXXXXXXXXXXXXXXXXXXXXXXXXXXXXXXXX",
"XXXXXXXXXXXXXXXXXXXXXXXXXXXXXXXXXXXXXXXXXXXXXXXXXXXXXXXXXXXXXXXX",
"XXXXXXXXXXXXXXXXXXXXXXXXXXXXXXXXXXXXXXXXXXXXXXXXXXXXXXXXXXXXXXXX",
"XXXXXXXXXXXXXXXXXXXXXXXXXXXXXXXXXXXXXXXXXXXXXXXXXXXXXXXXXXXXXXXX",
"XXXXXXXXXXXXXXXXXXXXXXXXXXXXXXXXXXXXXXXXXXXXXXXXXXXXXXXXXXXXXXXX",
"XXXXXXXXXXXXXXXXXXXXXXXXXXXXXXXXXXXXXXXXXXXXXXXXXXXXXXXXXXXXXXXX",
"XXXXXXXXXXXXXXXXXXXXXXXXXXXXXXXXXXXXXXXXXXXXXXXXXXXXXXXXXXXXXXXX",
"XXXXXXXXXXXXXXXXXXXXXXXXXXXXXXXXXXXXXXXXXXXXXXXXXXXXXXXXXXXXXXXX",
"XXXXXXXXXXXXXXXXXXXXXXXXXXXXXXXXXXXXXXXXXXXXXXXXXXXXXXXXXXXXXXXX",
"XXXXXXXXXXXXXXXXXXXXXXXXXXXXXXXXXXXXXXXXXXXXXXXXXXXXXXXXXXXXXXXX",
"XXXXXXXXXXXXXXXXXXXXXXXXXXXXXXXXXXXXXXXXXXXXXXXXXXXXXXXXXXXXXXXX",
"XXXXXXXXXXXXXXXXXXXXXXXXXXXXXXXXXXXXXXXXXXXXXXXXXXXXXXXXXXXXXXXX",
"XXXXXXXXXXXXXXXXX        XXXXXXXXXXXXXXXXXXXX      XXXXXXXXXXXXX",
"XXXXXXXXXXXXXXX   .......   XXXXXXXXXXXXXXXX  .... XXXXXXXXXXXXX",
"XXXXXXXXXXXXXXX ............  XXXXXXXXXXXXX  ...... XXXXXXXXXXXX",
"XXXXXXXXXXXXXX ...............  XXXXXXXXXXX ....... XXXXXXXXXXXX",
"XXXXXXXXXXXXX  ................  XXXXXXXXXX ........ XXXXXXXXXXX",
"XXXXXXXXXXXXX ................... XXXXXXXX ......... XXXXXXXXXXX",
"XXXXXXXXXXXXX ....................  XXXXXX ......... XXXXXXXXXXX",
"XXXXXXXXXXXX ......................  XXXXX ......... XXXXXXXXXXX",
"XXXXXXXXXXXX ........................  XXX ......... XXXXXXXXXXX",
"XXXXXXXXXXXX .........................  XX ......... XXXXXXXXXXX",
"XXXXXXXXXXXX .............. ...........  X ......... XXXXXXXXXXX",
"XXXXXXXXXXX ...............  ...........   ......... XXXXXXXXXXX",
"XXXXXXXXXXX ................ ...........  .......... XXXXXXXXXXX",
"XXXXXXXXXXX ................  ..........  .......... XXXXXXXXXXX",
"XXXXXXXXXXX ................  ...................... XXXXXXXXXXX",
"XXXXXXXXXXX ................ X ..................... XXXXXXXXXXX",
"XXXXXXXXXXX ................ X .....  ........  .... XXXXXXXXXXX",
"XXXXXXXXXXX ................ X ......  ......  ...... XXXXXXXXXX",
"XXXXXXXXXXX ................ X .......  ....  ....... XXXXXXXXXX",
"XXXXXXXXXXX ................ X  .......  ... ........ XXXXXXXXXX",
"XXXXXXXXXXX ...............  XX ..................... XXXXXXXXXX",
"XXXXXXXXXXX ............... XXX ..... ........ ...... XXXXXXXXXX",
"XXXXXXXXXXX ............... XXX ..................... XXXXXXXXXX",
"XXXXXXXXXXX ............... XXX ........   .......... XXXXXXXXXX",
"XXXXXXXXXX ................ XXX ........ ..  ....... XXXXXXXXXXX",
"XXXXXXXXXX ................ XXX  ......  ... ....... XXXXXXXXXXX",
"XXXXXXXXXX ................ XXXX ...... .... ....... XXXXXXXXXXX",
"XXXXXXXXXX ............... XXXXX .....  .... ....... XXXXXXXXXXX",
"XXXXXXXXXX ............... XXXXX ................... XXXXXXXXXXX",
"XXXXXXXXXX ............... XXXXX ................... XXXXXXXXXXX",
"XXXXXXXXXX ............... XXXXXX ................. XXXXXXXXXXXX",
"XXXXXXXXXX .............. XXXXXXX ................. XXXXXXXXXXXX",
"XXXXXXXXXX .............  XXXXXXX ................ XXXXXXXXXXXXX",
"XXXXXXXXXX ............. XXXXXXXXX .............. XXXXXXXXXXXXXX",
"XXXXXXXXXX ............  XXXXXXXXX .............. XXXXXXXXXXXXXX",
"XXXXXXXXXX ...........  XXXXXXXXXX  ............ XXXXXXXXXXXXXXX",
"XXXXXXXXXX ........... XXXXXXXXXXXX ........... XXXXXXXXXXXXXXXX",
"XXXXXXXXXXX ......... XXXXXXXXXXXXX  .........  XXXXXXXXXXXXXXXX",
"XXXXXXXXXXX ........ XXXXXXXXXXXXXXX ......... XXXXXXXXXXXXXXXXX",
"XXXXXXXXXXX ....... XXXXXXXXXXXXXXXXX  .....  XXXXXXXXXXXXXXXXXX",
"XXXXXXXXXXXX ..... XXXXXXXXXXXXXXXXXXX       XXXXXXXXXXXXXXXXXXX",
"XXXXXXXXXXXX  ... XXXXXXXXXXXXXXXXXXXXXXXXXXXXXXXXXXXXXXXXXXXXXX",
"XXXXXXXXXXXXXX   XXXXXXXXXXXXXXXXXXXXXXXXXXXXXXXXXXXXXXXXXXXXXXX",
"XXXXXXXXXXXXXXXXXXXXXXXXXXXXXXXXXXXXXXXXXXXXXXXXXXXXXXXXXXXXXXXX",
"XXXXXXXXXXXXXXXXXXXXXXXXXXXXXXXXXXXXXXXXXXXXXXXXXXXXXXXXXXXXXXXX",
"XXXXXXXXXXXXXXXXXXXXXXXXXXXXXXXXXXXXXXXXXXXXXXXXXXXXXXXXXXXXXXXX",
"XXXXXXXXXXXXXXXXXXXXXXXXXXXXXXXXXXXXXXXXXXXXXXXXXXXXXXXXXXXXXXXX",
"XXXXXXXXXXXXXXXXXXXXXXXXXXXXXXXXXXXXXXXXXXXXXXXXXXXXXXXXXXXXXXXX",
"XXXXXXXXXXXXXXXXXXXXXXXXXXXXXXXXXXXXXXXXXXXXXXXXXXXXXXXXXXXXXXXX",
"XXXXXXXXXXXXXXXXXXXXXXXXXXXXXXXXXXXXXXXXXXXXXXXXXXXXXXXXXXXXXXXX",
"XXXXXXXXXXXXXXXXXXXXXXXXXXXXXXXXXXXXXXXXXXXXXXXXXXXXXXXXXXXXXXXX",
"XXXXXXXXXXXXXXXXXXXXXXXXXXXXXXXXXXXXXXXXXXXXXXXXXXXXXXXXXXXXXXXX"
};
