/* XPM */
static char *_184d1fbf4c14b6da49e7a9b86d09ce8ZNlDoFd0xiIl9L14[] = {
/* columns rows colors chars-per-pixel */
"64 64 5 1 ",
"  c black",
". c #00B7EF",
"X c #99D9EA",
"o c #F9F9F9",
"O c white",
/* pixels */
"OOOOOOOOOOOOOOOOOOOOOOOOOOOOOOOOOOOOOOOOOOOOOOOOOOOOOOOOOOOOOOOO",
"OOOOOOOOOOOOOOOOOOOOOOOOOOOOOOOOOOOOOOOOOOOOOOOOOOOOOOOOOOOOOOOO",
"OOOOOOOOOOOOOOOOOOOOOOOOOOOOOOOOOOOOOOOOOOOOOOOOOOOOOOOOOOOOOOOO",
"OOOOOOOOOOOOOOOOOOOOOOOOOOOOOOOOOOOOOOOOOOOOOOOOOOOOOOOOOOOOOOOO",
"OOOOOOOOOOOOOOOOOOOOOOOOOOOOOOOOOOOOOOOOOOOOOOOOOOOOOOOOOOOOOOOO",
"OOOOOOOOOOOOOOOOOOOOOOOOOOOOOOOOOOOOOOOOOOOOOOOOOOOOOOOOOOOOOOOO",
"OOOOOOOOOOOOOOOOOOOOOOOOOOOOOOOOOOOOOOOOOOOOOOOOOOOOOOOOOOOOOOOO",
"OOOOOOOOOOOOOOOOOOOOOOOOOOOOOOOOOOOOOOOOOOOOOOOOOOOOOOOOOOOOOOOO",
"OOOOOOOOOOOOOOOOOOOOOO       OOOOOOOOOOOOOOOOOOOOOOOOOOOOOOOOOOO",
"OOOOOOOOOOOOOOOOOO    OOOOOOO      OOOOOOOOOOOOOOOOOOOOOOOOOOOOO",
"OOOOOOOOOOOOOOO   OOOOOOOOOOOOOOOOO  OOOOOOOOOOOOOOOOOOOOOOOOOOO",
"OOOOOOOOOOOOOO  OOOOOOOOOOOOOOOOOOOOO  OOOOOOOOOOOOOOOOOOOOOOOOO",
"OOOOOOOOOOOOOO OOOOOOOOOOOOOOOOOOOOOOOO OOOOOOOOOOOOOOOOOOOOOOOO",
"OOOOOOOOOOOOOO OOOOOOOOOOOOOOOOOOOOOOOOO  OOOOOOOOOOOOOOOOOOOOOO",
"OOOOOOOOOOOOOO OOOOOOOOOOOOOOOOOOOOOOOOOOO OOOOOOOOOOOOOOOOOOOOO",
"OOOOOOOOOOOOOO OOOOOOOO   OOOOOOOOOOOOOOOOO OOOOOOOOOOOOOOOOOOOO",
"OOOOOOOOOOOOOO OOOOOOOOOOO  OOOOOOOOOOOOOOOO OOOOOOOOOOOOOOOOOOO",
"OOOOOOOOOOOOOO OOOOOOOOOOOOO OOOOOOOOOOOOOOOO OOOOOOOOOOOOOOOOOO",
"OOOOOOOOOOOOOO OOOOOOOOOOOOO  OOOOOOOOOOOOOOO OOOOOOOOOOOOOOOOOO",
"OOOOOOOOOOOOOO OOOOOOOOOOOOOOO  OOOOOOOOOOOOOO OOOOOOOOOOOOOOOOO",
"OOOOOOOOOOOOOO OOOOOOOOOOOOOOOOO OOOOOOOOOOOOO OOOOOOOOOOOOOOOOO",
"OOOOOOOOOOOOOO OOOOOOOOOOOOOO     OOOOOOOOOOOO OOOOOOOOOOOOOOOOO",
"OOOOOOOOOOOOOO OOOOOOOOOOOOO  . OO OOOOOOOOOOO OOOOOOOOOOOOOOOOO",
"OOOOOOOOOOOOOO OOOOOOOOOOOO ... OOOOOOOOOOOOOOO OOOOOOOOOOOOOOOO",
"OOOOOOOOOOOOOO OOOOOOOOOOO .XXX. OOOOOOOOOOOOOO OOOOOOOOOOOOOOOO",
"OOOOOOOOOOOOOO OOOOOOOOOOO .XOX. OOOOOOOOOOOOOO OOOOOOOOOOOOOOOO",
"OOOOOOOOOOOOOO OOOOOOOOOOOO .XX. OOOOOOOOOOOOOO OOOOOOOOOOOOOOOO",
"OOOOOOOOOOOOOO OOOOOOOOOOOO .X . OOOOOOOOOOOOOO OOOOOOOOOOOOOOOO",
"OOOOOOOOOOOOOO OOOOOOOOOOOO .XO. OOOOOOOOOOOOOO OOOOOOOOOOOOOOOO",
"OOOOOOOOOOOOOO OOOOOOOOOOOOO .O. OOOOOOOOOOOOOO OOOOOOOOOOOOOOOO",
"OOOOOOOOOOOOO OOOOOOOOOOOOOO ..  OOOOOOOOOOOOOO OOOOOOOOOOOOOOOO",
"OOOOOOOOOOOOO OOOOOOOOOOOOOO   OOOOOOOOOOOOOOOO OOOOOOOOOOOOOOOO",
"OOOOOOOOOOOOO OOOOOOOOOOOOOOOOOOOOOOOOOOOOOOOOO OOOOOOOOOOOOOOOO",
"OOOOOOOOOOOOO OOOOOOOOOOOOOOOOOOOOOOOOOO OOOOOO OOOOOOOOOOOOOOOO",
"OOOOOOOOOOOOO OOOOOOOOOOOOOOOOOOO OOOOOO OOOOOO OOOOOOOOOOOOOOOO",
"OOOOOOOOOOOOO OOOOOOOOOOOOOOOOOOO  OOOOO OOOOOO OOOOOOOOOOOOOOOO",
"OOOOOOOOOOOOO OOOOOOOOOOOOOOOOOOOOO OOOO OOOOO OOOOOOOOOOOOOOOOO",
"OOOOOOOOOOOOO OOOOOOOOOOOOOOOOOOOOO OOOO OOOOO OOOOOOOOOOOOOOOOO",
"OOOOOOOOOOOOO OOOOOOOO  OOOOOOOOOOOO  O  OOOO OOOOOOOOOOOOOOOOOO",
"OOOOOOOOOOOOO OOOOOOOOO   OOOOOOOOOOOO  OOOO OOOOOOOOOOOOOOOOOOO",
"OOOOOOOOOOOOO OOOOOOOOOOOO OOOOOOOOOOOOOOOO OOOOOOOOOOOOOOOOOOOO",
"OOOOOOOOOOOOO OOOOOOOOOOOOO   OOOOOOOOOOO  OOOOOOOOOOOOOOOOOOOOO",
"OOOOOOOOOOOOO OOOOOOOOOOOOOOO            OOOOOOOOOOOOOOOOOOOOOOO",
"OOOOOOOOOOOOO OOOOOOOOOOOOOOOO  OOOOOOOOOOOOOOOOOOOOOOOOOOOOOOOO",
"OOOOOOOOOOOOO OOOOOOOOOOOOOOOO OOOOOOOOOOOOOOOOOOOOOOOOOOOOOOOOO",
"OOOOOOOOOOOOO OOOOOOOOOOOOOOOO OOOOOOOOOOOOOOOOOOOOOOOOOOOOOOOOO",
"OOOOOOOOOOoOO OOOOOOOOOOOOOOOO OOOOOOOOOOOOOOOOOOOOOOOOOOOOOOOOO",
"OOOOOOOOOOOOo OOOOOOOOOOOOOOOO OOOOOOOOOOOOOOOOOOOOOOOOOOOOOOOOO",
"OOOOOOOOOOOOO OOOOOOOOOOOOOOOO OOOOOOOOOOOOOOOOOOOOOOOOOOOOOOOOO",
"OOOOOOOOOOOOO OOOOOOOOOOOOOOOO OOOOOOOOOOOOOOOOOOOOOOOOOOOOOOOOO",
"OOOOOOOOOOOOOO OOOOOOOOOOOOOOO OOOOOOOOOOOOOOOOOOOOOOOOOOOOOOOOO",
"OOOOOOOOOOOOOO OOOOOOOOOOOOOO OOOOOOOOOOOOOOOOOOOOOOOOOOOOOOOOOO",
"OOOOOOOOOOOOOO OOOOOOOOOOOOOO OOOOOOOOOOOOOOOOOOOOOOOOOOOOOOOOOO",
"OOOOOOOOOOOOOOO OOOOOOOOOOOOO OOOOOOOOOOOOOOOOOOOOOOOOOOOOOOOOOO",
"OOOOOOOOOOOOOOOO  OOOOOOOOOO  OOOOOOOOOOOOOOOOOOOOOOOOOOOOOOOOOO",
"OOOOOOOOOOOOOOOOO  OOOOOOOO  OOOOOOOOOOOOOOOOOOOOOOOOOOOOOOOOOOO",
"OOOOOOOOOOOOOOOOOOO   OOO   OOOOOOOOOOOOOOOOOOOOOOOOOOOOOOOOOOOO",
"OOOOOOOOOOOOOOOOOOOOO    OOOOOOOOOOOOOOOOOOOOOOOOOOOOOOOOOOOOOOO",
"OOOOOOOOOOOOOOOOOOOOOOOOOOOOOOOOOOOOOOOOOOOOOOOOOOOOOOOOOOOOOOOO",
"OOOOOOOOOOOOOOOOOOOOOOOOOOOOOOOOOOOOOOOOOOOOOOOOOOOOOOOOOOOOOOOO",
"OOOOOOOOOOOOOOOOOOOOOOOOOOOOOOOOOOOOOOOOOOOOOOOOOOOOOOOOOOOOOOOO",
"OOOOOOOOOOOOOOOOOOOOOOOOOOOOOOOOOOOOOOOOOOOOOOOOOOOOOOOOOOOOOOOO",
"OOOOOOOOOOOOOOOOOOOOOOOOOOOOOOOOOOOOOOOOOOOOOOOOOOOOOOOOOOOOOOOO",
"OOOOOOOOOOOOOOOOOOOOOOOOOOOOOOOOOOOOOOOOOOOOOOOOOOOOOOOOOOOOOOOO"
};
